<?xml version="1.0" encoding="utf-8" standalone="no"?>
<!DOCTYPE svg PUBLIC "-//W3C//DTD SVG 1.1//EN"
  "http://www.w3.org/Graphics/SVG/1.1/DTD/svg11.dtd">
<!-- Created with matplotlib (https://matplotlib.org/) -->
<svg height="288pt" version="1.1" viewBox="0 0 432 288" width="432pt" xmlns="http://www.w3.org/2000/svg" xmlns:xlink="http://www.w3.org/1999/xlink">
 <defs>
  <style type="text/css">
*{stroke-linecap:butt;stroke-linejoin:round;}
  </style>
 </defs>
 <g id="figure_1">
  <g id="patch_1">
   <path d="M 0 288 
L 432 288 
L 432 0 
L 0 0 
z
" style="fill:#ffffff;"/>
  </g>
  <g id="axes_1">
   <g id="patch_2">
    <path d="M 54 252 
L 388.8 252 
L 388.8 34.56 
L 54 34.56 
z
" style="fill:#ffffff;"/>
   </g>
   <g id="PathCollection_1">
    <defs>
     <path d="M 0 3 
C 0.795609 3 1.55874 2.683901 2.12132 2.12132 
C 2.683901 1.55874 3 0.795609 3 0 
C 3 -0.795609 2.683901 -1.55874 2.12132 -2.12132 
C 1.55874 -2.683901 0.795609 -3 0 -3 
C -0.795609 -3 -1.55874 -2.683901 -2.12132 -2.12132 
C -2.683901 -1.55874 -3 -0.795609 -3 0 
C -3 0.795609 -2.683901 1.55874 -2.12132 2.12132 
C -1.55874 2.683901 -0.795609 3 0 3 
z
" id="C0_0_a5b7df58d8"/>
    </defs>
    <g clip-path="url(#pf5ba82f782)">
     <use style="fill:#440154;stroke:#440154;" x="181.324229" xlink:href="#C0_0_a5b7df58d8" y="237.727173"/>
    </g>
    <g clip-path="url(#pf5ba82f782)">
     <use style="fill:#440154;stroke:#440154;" x="193.082583" xlink:href="#C0_0_a5b7df58d8" y="218.014758"/>
    </g>
    <g clip-path="url(#pf5ba82f782)">
     <use style="fill:#440154;stroke:#440154;" x="271.195277" xlink:href="#C0_0_a5b7df58d8" y="185.890708"/>
    </g>
    <g clip-path="url(#pf5ba82f782)">
     <use style="fill:#440154;stroke:#440154;" x="218.481165" xlink:href="#C0_0_a5b7df58d8" y="227.401223"/>
    </g>
    <g clip-path="url(#pf5ba82f782)">
     <use style="fill:#440154;stroke:#440154;" x="189.073116" xlink:href="#C0_0_a5b7df58d8" y="219.451096"/>
    </g>
    <g clip-path="url(#pf5ba82f782)">
     <use style="fill:#440154;stroke:#440154;" x="151.436465" xlink:href="#C0_0_a5b7df58d8" y="226.077268"/>
    </g>
    <g clip-path="url(#pf5ba82f782)">
     <use style="fill:#440154;stroke:#440154;" x="239.522682" xlink:href="#C0_0_a5b7df58d8" y="206.590476"/>
    </g>
    <g clip-path="url(#pf5ba82f782)">
     <use style="fill:#440154;stroke:#440154;" x="184.815578" xlink:href="#C0_0_a5b7df58d8" y="189.713884"/>
    </g>
    <g clip-path="url(#pf5ba82f782)">
     <use style="fill:#440154;stroke:#440154;" x="146.042785" xlink:href="#C0_0_a5b7df58d8" y="242.116364"/>
    </g>
    <g clip-path="url(#pf5ba82f782)">
     <use style="fill:#440154;stroke:#440154;" x="194.742256" xlink:href="#C0_0_a5b7df58d8" y="196.803703"/>
    </g>
    <g clip-path="url(#pf5ba82f782)">
     <use style="fill:#440154;stroke:#440154;" x="163.834967" xlink:href="#C0_0_a5b7df58d8" y="231.371515"/>
    </g>
    <g clip-path="url(#pf5ba82f782)">
     <use style="fill:#440154;stroke:#440154;" x="230.680086" xlink:href="#C0_0_a5b7df58d8" y="140.260611"/>
    </g>
    <g clip-path="url(#pf5ba82f782)">
     <use style="fill:#440154;stroke:#440154;" x="214.568057" xlink:href="#C0_0_a5b7df58d8" y="215.21002"/>
    </g>
    <g clip-path="url(#pf5ba82f782)">
     <use style="fill:#440154;stroke:#440154;" x="192.041021" xlink:href="#C0_0_a5b7df58d8" y="221.54265"/>
    </g>
    <g clip-path="url(#pf5ba82f782)">
     <use style="fill:#440154;stroke:#440154;" x="206.940726" xlink:href="#C0_0_a5b7df58d8" y="201.722588"/>
    </g>
    <g clip-path="url(#pf5ba82f782)">
     <use style="fill:#440154;stroke:#440154;" x="224.127935" xlink:href="#C0_0_a5b7df58d8" y="178.250713"/>
    </g>
    <g clip-path="url(#pf5ba82f782)">
     <use style="fill:#440154;stroke:#440154;" x="210.781694" xlink:href="#C0_0_a5b7df58d8" y="225.137245"/>
    </g>
    <g clip-path="url(#pf5ba82f782)">
     <use style="fill:#440154;stroke:#440154;" x="224.870119" xlink:href="#C0_0_a5b7df58d8" y="216.043942"/>
    </g>
    <g clip-path="url(#pf5ba82f782)">
     <use style="fill:#440154;stroke:#440154;" x="229.351" xlink:href="#C0_0_a5b7df58d8" y="191.644558"/>
    </g>
    <g clip-path="url(#pf5ba82f782)">
     <use style="fill:#440154;stroke:#440154;" x="217.923846" xlink:href="#C0_0_a5b7df58d8" y="196.150144"/>
    </g>
    <g clip-path="url(#pf5ba82f782)">
     <use style="fill:#440154;stroke:#440154;" x="153.900391" xlink:href="#C0_0_a5b7df58d8" y="241.613824"/>
    </g>
    <g clip-path="url(#pf5ba82f782)">
     <use style="fill:#440154;stroke:#440154;" x="268.152412" xlink:href="#C0_0_a5b7df58d8" y="163.414507"/>
    </g>
    <g clip-path="url(#pf5ba82f782)">
     <use style="fill:#440154;stroke:#440154;" x="211.80269" xlink:href="#C0_0_a5b7df58d8" y="203.764186"/>
    </g>
    <g clip-path="url(#pf5ba82f782)">
     <use style="fill:#440154;stroke:#440154;" x="202.894057" xlink:href="#C0_0_a5b7df58d8" y="233.83813"/>
    </g>
    <g clip-path="url(#pf5ba82f782)">
     <use style="fill:#440154;stroke:#440154;" x="222.387135" xlink:href="#C0_0_a5b7df58d8" y="195.693825"/>
    </g>
    <g clip-path="url(#pf5ba82f782)">
     <use style="fill:#440154;stroke:#440154;" x="185.965587" xlink:href="#C0_0_a5b7df58d8" y="156.811686"/>
    </g>
    <g clip-path="url(#pf5ba82f782)">
     <use style="fill:#440154;stroke:#440154;" x="217.834411" xlink:href="#C0_0_a5b7df58d8" y="198.631841"/>
    </g>
    <g clip-path="url(#pf5ba82f782)">
     <use style="fill:#440154;stroke:#440154;" x="257.941439" xlink:href="#C0_0_a5b7df58d8" y="192.109749"/>
    </g>
    <g clip-path="url(#pf5ba82f782)">
     <use style="fill:#440154;stroke:#440154;" x="226.726014" xlink:href="#C0_0_a5b7df58d8" y="196.486147"/>
    </g>
    <g clip-path="url(#pf5ba82f782)">
     <use style="fill:#440154;stroke:#440154;" x="251.11491" xlink:href="#C0_0_a5b7df58d8" y="210.452035"/>
    </g>
    <g clip-path="url(#pf5ba82f782)">
     <use style="fill:#440154;stroke:#440154;" x="215.475387" xlink:href="#C0_0_a5b7df58d8" y="182.200087"/>
    </g>
    <g clip-path="url(#pf5ba82f782)">
     <use style="fill:#440154;stroke:#440154;" x="250.521926" xlink:href="#C0_0_a5b7df58d8" y="169.851268"/>
    </g>
    <g clip-path="url(#pf5ba82f782)">
     <use style="fill:#440154;stroke:#440154;" x="181.986254" xlink:href="#C0_0_a5b7df58d8" y="234.216623"/>
    </g>
    <g clip-path="url(#pf5ba82f782)">
     <use style="fill:#440154;stroke:#440154;" x="305.143" xlink:href="#C0_0_a5b7df58d8" y="125.110361"/>
    </g>
    <g clip-path="url(#pf5ba82f782)">
     <use style="fill:#440154;stroke:#440154;" x="251.08287" xlink:href="#C0_0_a5b7df58d8" y="167.481765"/>
    </g>
    <g clip-path="url(#pf5ba82f782)">
     <use style="fill:#440154;stroke:#440154;" x="273.923041" xlink:href="#C0_0_a5b7df58d8" y="156.654019"/>
    </g>
    <g clip-path="url(#pf5ba82f782)">
     <use style="fill:#440154;stroke:#440154;" x="213.595804" xlink:href="#C0_0_a5b7df58d8" y="209.267603"/>
    </g>
    <g clip-path="url(#pf5ba82f782)">
     <use style="fill:#440154;stroke:#440154;" x="220.589095" xlink:href="#C0_0_a5b7df58d8" y="162.051171"/>
    </g>
    <g clip-path="url(#pf5ba82f782)">
     <use style="fill:#440154;stroke:#440154;" x="183.317325" xlink:href="#C0_0_a5b7df58d8" y="85.840817"/>
    </g>
    <g clip-path="url(#pf5ba82f782)">
     <use style="fill:#440154;stroke:#440154;" x="231.637883" xlink:href="#C0_0_a5b7df58d8" y="206.537592"/>
    </g>
    <g clip-path="url(#pf5ba82f782)">
     <use style="fill:#440154;stroke:#440154;" x="234.361123" xlink:href="#C0_0_a5b7df58d8" y="163.924101"/>
    </g>
    <g clip-path="url(#pf5ba82f782)">
     <use style="fill:#440154;stroke:#440154;" x="232.858919" xlink:href="#C0_0_a5b7df58d8" y="190.731529"/>
    </g>
    <g clip-path="url(#pf5ba82f782)">
     <use style="fill:#440154;stroke:#440154;" x="253.38211" xlink:href="#C0_0_a5b7df58d8" y="174.522904"/>
    </g>
    <g clip-path="url(#pf5ba82f782)">
     <use style="fill:#440154;stroke:#440154;" x="230.860403" xlink:href="#C0_0_a5b7df58d8" y="214.516089"/>
    </g>
    <g clip-path="url(#pf5ba82f782)">
     <use style="fill:#440154;stroke:#440154;" x="215.687291" xlink:href="#C0_0_a5b7df58d8" y="189.695951"/>
    </g>
    <g clip-path="url(#pf5ba82f782)">
     <use style="fill:#440154;stroke:#440154;" x="189.261835" xlink:href="#C0_0_a5b7df58d8" y="147.080603"/>
    </g>
    <g clip-path="url(#pf5ba82f782)">
     <use style="fill:#440154;stroke:#440154;" x="188.748691" xlink:href="#C0_0_a5b7df58d8" y="235.087477"/>
    </g>
    <g clip-path="url(#pf5ba82f782)">
     <use style="fill:#440154;stroke:#440154;" x="220.674965" xlink:href="#C0_0_a5b7df58d8" y="185.621886"/>
    </g>
    <g clip-path="url(#pf5ba82f782)">
     <use style="fill:#440154;stroke:#440154;" x="205.35519" xlink:href="#C0_0_a5b7df58d8" y="233.203893"/>
    </g>
    <g clip-path="url(#pf5ba82f782)">
     <use style="fill:#440154;stroke:#440154;" x="220.813317" xlink:href="#C0_0_a5b7df58d8" y="150.739446"/>
    </g>
    <g clip-path="url(#pf5ba82f782)">
     <use style="fill:#440154;stroke:#440154;" x="207.271111" xlink:href="#C0_0_a5b7df58d8" y="222.60736"/>
    </g>
    <g clip-path="url(#pf5ba82f782)">
     <use style="fill:#440154;stroke:#440154;" x="220.810351" xlink:href="#C0_0_a5b7df58d8" y="207.663651"/>
    </g>
    <g clip-path="url(#pf5ba82f782)">
     <use style="fill:#440154;stroke:#440154;" x="221.061382" xlink:href="#C0_0_a5b7df58d8" y="216.570251"/>
    </g>
    <g clip-path="url(#pf5ba82f782)">
     <use style="fill:#440154;stroke:#440154;" x="242.783439" xlink:href="#C0_0_a5b7df58d8" y="203.36116"/>
    </g>
    <g clip-path="url(#pf5ba82f782)">
     <use style="fill:#440154;stroke:#440154;" x="239.23443" xlink:href="#C0_0_a5b7df58d8" y="182.548113"/>
    </g>
    <g clip-path="url(#pf5ba82f782)">
     <use style="fill:#440154;stroke:#440154;" x="200.095477" xlink:href="#C0_0_a5b7df58d8" y="225.247825"/>
    </g>
    <g clip-path="url(#pf5ba82f782)">
     <use style="fill:#440154;stroke:#440154;" x="204.45307" xlink:href="#C0_0_a5b7df58d8" y="222.28306"/>
    </g>
    <g clip-path="url(#pf5ba82f782)">
     <use style="fill:#440154;stroke:#440154;" x="221.785764" xlink:href="#C0_0_a5b7df58d8" y="189.89621"/>
    </g>
    <g clip-path="url(#pf5ba82f782)">
     <use style="fill:#440154;stroke:#440154;" x="222.145697" xlink:href="#C0_0_a5b7df58d8" y="211.50773"/>
    </g>
    <g clip-path="url(#pf5ba82f782)">
     <use style="fill:#440154;stroke:#440154;" x="225.069335" xlink:href="#C0_0_a5b7df58d8" y="174.129568"/>
    </g>
    <g clip-path="url(#pf5ba82f782)">
     <use style="fill:#440154;stroke:#440154;" x="249.454468" xlink:href="#C0_0_a5b7df58d8" y="187.964451"/>
    </g>
    <g clip-path="url(#pf5ba82f782)">
     <use style="fill:#440154;stroke:#440154;" x="225.276983" xlink:href="#C0_0_a5b7df58d8" y="211.045256"/>
    </g>
    <g clip-path="url(#pf5ba82f782)">
     <use style="fill:#440154;stroke:#440154;" x="243.804095" xlink:href="#C0_0_a5b7df58d8" y="196.900262"/>
    </g>
    <g clip-path="url(#pf5ba82f782)">
     <use style="fill:#440154;stroke:#440154;" x="269.182903" xlink:href="#C0_0_a5b7df58d8" y="176.007245"/>
    </g>
    <g clip-path="url(#pf5ba82f782)">
     <use style="fill:#440154;stroke:#440154;" x="233.412962" xlink:href="#C0_0_a5b7df58d8" y="183.071082"/>
    </g>
    <g clip-path="url(#pf5ba82f782)">
     <use style="fill:#440154;stroke:#440154;" x="202.27326" xlink:href="#C0_0_a5b7df58d8" y="212.856468"/>
    </g>
    <g clip-path="url(#pf5ba82f782)">
     <use style="fill:#440154;stroke:#440154;" x="221.27935" xlink:href="#C0_0_a5b7df58d8" y="206.088738"/>
    </g>
    <g clip-path="url(#pf5ba82f782)">
     <use style="fill:#440154;stroke:#440154;" x="227.628888" xlink:href="#C0_0_a5b7df58d8" y="134.238717"/>
    </g>
    <g clip-path="url(#pf5ba82f782)">
     <use style="fill:#440154;stroke:#440154;" x="216.135288" xlink:href="#C0_0_a5b7df58d8" y="203.954994"/>
    </g>
    <g clip-path="url(#pf5ba82f782)">
     <use style="fill:#440154;stroke:#440154;" x="222.256607" xlink:href="#C0_0_a5b7df58d8" y="126.118629"/>
    </g>
    <g clip-path="url(#pf5ba82f782)">
     <use style="fill:#440154;stroke:#440154;" x="211.302132" xlink:href="#C0_0_a5b7df58d8" y="226.8393"/>
    </g>
    <g clip-path="url(#pf5ba82f782)">
     <use style="fill:#440154;stroke:#440154;" x="254.554625" xlink:href="#C0_0_a5b7df58d8" y="190.917049"/>
    </g>
    <g clip-path="url(#pf5ba82f782)">
     <use style="fill:#440154;stroke:#440154;" x="245.054587" xlink:href="#C0_0_a5b7df58d8" y="183.590053"/>
    </g>
    <g clip-path="url(#pf5ba82f782)">
     <use style="fill:#440154;stroke:#440154;" x="271.885754" xlink:href="#C0_0_a5b7df58d8" y="194.80727"/>
    </g>
    <g clip-path="url(#pf5ba82f782)">
     <use style="fill:#440154;stroke:#440154;" x="214.085791" xlink:href="#C0_0_a5b7df58d8" y="213.33079"/>
    </g>
    <g clip-path="url(#pf5ba82f782)">
     <use style="fill:#440154;stroke:#440154;" x="335.286024" xlink:href="#C0_0_a5b7df58d8" y="65.740189"/>
    </g>
    <g clip-path="url(#pf5ba82f782)">
     <use style="fill:#440154;stroke:#440154;" x="223.83879" xlink:href="#C0_0_a5b7df58d8" y="135.595052"/>
    </g>
    <g clip-path="url(#pf5ba82f782)">
     <use style="fill:#440154;stroke:#440154;" x="253.681011" xlink:href="#C0_0_a5b7df58d8" y="186.206403"/>
    </g>
    <g clip-path="url(#pf5ba82f782)">
     <use style="fill:#440154;stroke:#440154;" x="373.581818" xlink:href="#C0_0_a5b7df58d8" y="102.160294"/>
    </g>
    <g clip-path="url(#pf5ba82f782)">
     <use style="fill:#440154;stroke:#440154;" x="241.258865" xlink:href="#C0_0_a5b7df58d8" y="205.064048"/>
    </g>
    <g clip-path="url(#pf5ba82f782)">
     <use style="fill:#440154;stroke:#440154;" x="241.011343" xlink:href="#C0_0_a5b7df58d8" y="178.142447"/>
    </g>
    <g clip-path="url(#pf5ba82f782)">
     <use style="fill:#440154;stroke:#440154;" x="179.114489" xlink:href="#C0_0_a5b7df58d8" y="214.533269"/>
    </g>
    <g clip-path="url(#pf5ba82f782)">
     <use style="fill:#440154;stroke:#440154;" x="206.562989" xlink:href="#C0_0_a5b7df58d8" y="200.356723"/>
    </g>
    <g clip-path="url(#pf5ba82f782)">
     <use style="fill:#440154;stroke:#440154;" x="225.990153" xlink:href="#C0_0_a5b7df58d8" y="199.928066"/>
    </g>
    <g clip-path="url(#pf5ba82f782)">
     <use style="fill:#440154;stroke:#440154;" x="213.149645" xlink:href="#C0_0_a5b7df58d8" y="193.778513"/>
    </g>
    <g clip-path="url(#pf5ba82f782)">
     <use style="fill:#440154;stroke:#440154;" x="240.070889" xlink:href="#C0_0_a5b7df58d8" y="194.939372"/>
    </g>
    <g clip-path="url(#pf5ba82f782)">
     <use style="fill:#440154;stroke:#440154;" x="221.743051" xlink:href="#C0_0_a5b7df58d8" y="212.447762"/>
    </g>
    <g clip-path="url(#pf5ba82f782)">
     <use style="fill:#440154;stroke:#440154;" x="216.004438" xlink:href="#C0_0_a5b7df58d8" y="198.930202"/>
    </g>
    <g clip-path="url(#pf5ba82f782)">
     <use style="fill:#440154;stroke:#440154;" x="243.373006" xlink:href="#C0_0_a5b7df58d8" y="203.873099"/>
    </g>
    <g clip-path="url(#pf5ba82f782)">
     <use style="fill:#440154;stroke:#440154;" x="216.752268" xlink:href="#C0_0_a5b7df58d8" y="191.521048"/>
    </g>
    <g clip-path="url(#pf5ba82f782)">
     <use style="fill:#440154;stroke:#440154;" x="234.992305" xlink:href="#C0_0_a5b7df58d8" y="179.396389"/>
    </g>
    <g clip-path="url(#pf5ba82f782)">
     <use style="fill:#440154;stroke:#440154;" x="238.991183" xlink:href="#C0_0_a5b7df58d8" y="182.366963"/>
    </g>
    <g clip-path="url(#pf5ba82f782)">
     <use style="fill:#440154;stroke:#440154;" x="221.168372" xlink:href="#C0_0_a5b7df58d8" y="185.781998"/>
    </g>
    <g clip-path="url(#pf5ba82f782)">
     <use style="fill:#440154;stroke:#440154;" x="258.929732" xlink:href="#C0_0_a5b7df58d8" y="166.54064"/>
    </g>
    <g clip-path="url(#pf5ba82f782)">
     <use style="fill:#440154;stroke:#440154;" x="216.079568" xlink:href="#C0_0_a5b7df58d8" y="180.900907"/>
    </g>
    <g clip-path="url(#pf5ba82f782)">
     <use style="fill:#440154;stroke:#440154;" x="296.362068" xlink:href="#C0_0_a5b7df58d8" y="187.784723"/>
    </g>
    <g clip-path="url(#pf5ba82f782)">
     <use style="fill:#440154;stroke:#440154;" x="206.215347" xlink:href="#C0_0_a5b7df58d8" y="230.649002"/>
    </g>
    <g clip-path="url(#pf5ba82f782)">
     <use style="fill:#440154;stroke:#440154;" x="172.616001" xlink:href="#C0_0_a5b7df58d8" y="188.584952"/>
    </g>
    <g clip-path="url(#pf5ba82f782)">
     <use style="fill:#440154;stroke:#440154;" x="179.591312" xlink:href="#C0_0_a5b7df58d8" y="197.13112"/>
    </g>
    <g clip-path="url(#pf5ba82f782)">
     <use style="fill:#440154;stroke:#440154;" x="157.877801" xlink:href="#C0_0_a5b7df58d8" y="227.445235"/>
    </g>
    <g clip-path="url(#pf5ba82f782)">
     <use style="fill:#440154;stroke:#440154;" x="163.645396" xlink:href="#C0_0_a5b7df58d8" y="235.748465"/>
    </g>
    <g clip-path="url(#pf5ba82f782)">
     <use style="fill:#440154;stroke:#440154;" x="121.182928" xlink:href="#C0_0_a5b7df58d8" y="225.558424"/>
    </g>
    <g clip-path="url(#pf5ba82f782)">
     <use style="fill:#440154;stroke:#440154;" x="176.004862" xlink:href="#C0_0_a5b7df58d8" y="206.680417"/>
    </g>
    <g clip-path="url(#pf5ba82f782)">
     <use style="fill:#fde725;stroke:#fde725;" x="152.423916" xlink:href="#C0_0_a5b7df58d8" y="166.875129"/>
    </g>
    <g clip-path="url(#pf5ba82f782)">
     <use style="fill:#fde725;stroke:#fde725;" x="146.200693" xlink:href="#C0_0_a5b7df58d8" y="181.212336"/>
    </g>
    <g clip-path="url(#pf5ba82f782)">
     <use style="fill:#fde725;stroke:#fde725;" x="176.399473" xlink:href="#C0_0_a5b7df58d8" y="44.443636"/>
    </g>
    <g clip-path="url(#pf5ba82f782)">
     <use style="fill:#fde725;stroke:#fde725;" x="134.116421" xlink:href="#C0_0_a5b7df58d8" y="137.012355"/>
    </g>
    <g clip-path="url(#pf5ba82f782)">
     <use style="fill:#fde725;stroke:#fde725;" x="139.768169" xlink:href="#C0_0_a5b7df58d8" y="164.787622"/>
    </g>
    <g clip-path="url(#pf5ba82f782)">
     <use style="fill:#fde725;stroke:#fde725;" x="117.626696" xlink:href="#C0_0_a5b7df58d8" y="104.073696"/>
    </g>
    <g clip-path="url(#pf5ba82f782)">
     <use style="fill:#fde725;stroke:#fde725;" x="110.46768" xlink:href="#C0_0_a5b7df58d8" y="132.300286"/>
    </g>
    <g clip-path="url(#pf5ba82f782)">
     <use style="fill:#fde725;stroke:#fde725;" x="166.918107" xlink:href="#C0_0_a5b7df58d8" y="189.333682"/>
    </g>
    <g clip-path="url(#pf5ba82f782)">
     <use style="fill:#fde725;stroke:#fde725;" x="150.578092" xlink:href="#C0_0_a5b7df58d8" y="206.991651"/>
    </g>
    <g clip-path="url(#pf5ba82f782)">
     <use style="fill:#fde725;stroke:#fde725;" x="160.690322" xlink:href="#C0_0_a5b7df58d8" y="167.459502"/>
    </g>
    <g clip-path="url(#pf5ba82f782)">
     <use style="fill:#fde725;stroke:#fde725;" x="142.329726" xlink:href="#C0_0_a5b7df58d8" y="176.19557"/>
    </g>
    <g clip-path="url(#pf5ba82f782)">
     <use style="fill:#fde725;stroke:#fde725;" x="222.033202" xlink:href="#C0_0_a5b7df58d8" y="195.266199"/>
    </g>
    <g clip-path="url(#pf5ba82f782)">
     <use style="fill:#fde725;stroke:#fde725;" x="179.125453" xlink:href="#C0_0_a5b7df58d8" y="201.290431"/>
    </g>
    <g clip-path="url(#pf5ba82f782)">
     <use style="fill:#fde725;stroke:#fde725;" x="165.64419" xlink:href="#C0_0_a5b7df58d8" y="175.75287"/>
    </g>
    <g clip-path="url(#pf5ba82f782)">
     <use style="fill:#fde725;stroke:#fde725;" x="159.031573" xlink:href="#C0_0_a5b7df58d8" y="138.386376"/>
    </g>
    <g clip-path="url(#pf5ba82f782)">
     <use style="fill:#fde725;stroke:#fde725;" x="139.621018" xlink:href="#C0_0_a5b7df58d8" y="142.366284"/>
    </g>
    <g clip-path="url(#pf5ba82f782)">
     <use style="fill:#fde725;stroke:#fde725;" x="178.675327" xlink:href="#C0_0_a5b7df58d8" y="156.326503"/>
    </g>
    <g clip-path="url(#pf5ba82f782)">
     <use style="fill:#fde725;stroke:#fde725;" x="149.858367" xlink:href="#C0_0_a5b7df58d8" y="203.1084"/>
    </g>
    <g clip-path="url(#pf5ba82f782)">
     <use style="fill:#fde725;stroke:#fde725;" x="130.352077" xlink:href="#C0_0_a5b7df58d8" y="117.344021"/>
    </g>
    <g clip-path="url(#pf5ba82f782)">
     <use style="fill:#fde725;stroke:#fde725;" x="149.736047" xlink:href="#C0_0_a5b7df58d8" y="156.834774"/>
    </g>
    <g clip-path="url(#pf5ba82f782)">
     <use style="fill:#fde725;stroke:#fde725;" x="139.217872" xlink:href="#C0_0_a5b7df58d8" y="156.811971"/>
    </g>
    <g clip-path="url(#pf5ba82f782)">
     <use style="fill:#fde725;stroke:#fde725;" x="147.319204" xlink:href="#C0_0_a5b7df58d8" y="152.302634"/>
    </g>
    <g clip-path="url(#pf5ba82f782)">
     <use style="fill:#fde725;stroke:#fde725;" x="131.828006" xlink:href="#C0_0_a5b7df58d8" y="162.642671"/>
    </g>
    <g clip-path="url(#pf5ba82f782)">
     <use style="fill:#fde725;stroke:#fde725;" x="181.566698" xlink:href="#C0_0_a5b7df58d8" y="167.925067"/>
    </g>
    <g clip-path="url(#pf5ba82f782)">
     <use style="fill:#fde725;stroke:#fde725;" x="80.981292" xlink:href="#C0_0_a5b7df58d8" y="135.712787"/>
    </g>
    <g clip-path="url(#pf5ba82f782)">
     <use style="fill:#fde725;stroke:#fde725;" x="139.888603" xlink:href="#C0_0_a5b7df58d8" y="155.290984"/>
    </g>
    <g clip-path="url(#pf5ba82f782)">
     <use style="fill:#fde725;stroke:#fde725;" x="147.044099" xlink:href="#C0_0_a5b7df58d8" y="161.519613"/>
    </g>
    <g clip-path="url(#pf5ba82f782)">
     <use style="fill:#fde725;stroke:#fde725;" x="199.661613" xlink:href="#C0_0_a5b7df58d8" y="190.14284"/>
    </g>
    <g clip-path="url(#pf5ba82f782)">
     <use style="fill:#fde725;stroke:#fde725;" x="215.271662" xlink:href="#C0_0_a5b7df58d8" y="235.620384"/>
    </g>
    <g clip-path="url(#pf5ba82f782)">
     <use style="fill:#fde725;stroke:#fde725;" x="231.965933" xlink:href="#C0_0_a5b7df58d8" y="180.865462"/>
    </g>
    <g clip-path="url(#pf5ba82f782)">
     <use style="fill:#fde725;stroke:#fde725;" x="132.956946" xlink:href="#C0_0_a5b7df58d8" y="184.488169"/>
    </g>
    <g clip-path="url(#pf5ba82f782)">
     <use style="fill:#fde725;stroke:#fde725;" x="164.586897" xlink:href="#C0_0_a5b7df58d8" y="194.240646"/>
    </g>
    <g clip-path="url(#pf5ba82f782)">
     <use style="fill:#fde725;stroke:#fde725;" x="69.218182" xlink:href="#C0_0_a5b7df58d8" y="135.196178"/>
    </g>
   </g>
   <g id="matplotlib.axis_1">
    <g id="xtick_1">
     <g id="line2d_1">
      <defs>
       <path d="M 0 0 
L 0 3.5 
" id="m644f4956a5" style="stroke:#000000;stroke-width:0.8;"/>
      </defs>
      <g>
       <use style="stroke:#000000;stroke-width:0.8;" x="90.982246" xlink:href="#m644f4956a5" y="252"/>
      </g>
     </g>
     <g id="text_1">
      <!-- −4000 -->
      <defs>
       <path d="M 10.59375 35.5 
L 73.1875 35.5 
L 73.1875 27.203125 
L 10.59375 27.203125 
z
" id="DejaVuSans-8722"/>
       <path d="M 37.796875 64.3125 
L 12.890625 25.390625 
L 37.796875 25.390625 
z
M 35.203125 72.90625 
L 47.609375 72.90625 
L 47.609375 25.390625 
L 58.015625 25.390625 
L 58.015625 17.1875 
L 47.609375 17.1875 
L 47.609375 0 
L 37.796875 0 
L 37.796875 17.1875 
L 4.890625 17.1875 
L 4.890625 26.703125 
z
" id="DejaVuSans-52"/>
       <path d="M 31.78125 66.40625 
Q 24.171875 66.40625 20.328125 58.90625 
Q 16.5 51.421875 16.5 36.375 
Q 16.5 21.390625 20.328125 13.890625 
Q 24.171875 6.390625 31.78125 6.390625 
Q 39.453125 6.390625 43.28125 13.890625 
Q 47.125 21.390625 47.125 36.375 
Q 47.125 51.421875 43.28125 58.90625 
Q 39.453125 66.40625 31.78125 66.40625 
z
M 31.78125 74.21875 
Q 44.046875 74.21875 50.515625 64.515625 
Q 56.984375 54.828125 56.984375 36.375 
Q 56.984375 17.96875 50.515625 8.265625 
Q 44.046875 -1.421875 31.78125 -1.421875 
Q 19.53125 -1.421875 13.0625 8.265625 
Q 6.59375 17.96875 6.59375 36.375 
Q 6.59375 54.828125 13.0625 64.515625 
Q 19.53125 74.21875 31.78125 74.21875 
z
" id="DejaVuSans-48"/>
      </defs>
      <g transform="translate(74.067402 266.598437)scale(0.1 -0.1)">
       <use xlink:href="#DejaVuSans-8722"/>
       <use x="83.789062" xlink:href="#DejaVuSans-52"/>
       <use x="147.412109" xlink:href="#DejaVuSans-48"/>
       <use x="211.035156" xlink:href="#DejaVuSans-48"/>
       <use x="274.658203" xlink:href="#DejaVuSans-48"/>
      </g>
     </g>
    </g>
    <g id="xtick_2">
     <g id="line2d_2">
      <g>
       <use style="stroke:#000000;stroke-width:0.8;" x="147.856226" xlink:href="#m644f4956a5" y="252"/>
      </g>
     </g>
     <g id="text_2">
      <!-- −2000 -->
      <defs>
       <path d="M 19.1875 8.296875 
L 53.609375 8.296875 
L 53.609375 0 
L 7.328125 0 
L 7.328125 8.296875 
Q 12.9375 14.109375 22.625 23.890625 
Q 32.328125 33.6875 34.8125 36.53125 
Q 39.546875 41.84375 41.421875 45.53125 
Q 43.3125 49.21875 43.3125 52.78125 
Q 43.3125 58.59375 39.234375 62.25 
Q 35.15625 65.921875 28.609375 65.921875 
Q 23.96875 65.921875 18.8125 64.3125 
Q 13.671875 62.703125 7.8125 59.421875 
L 7.8125 69.390625 
Q 13.765625 71.78125 18.9375 73 
Q 24.125 74.21875 28.421875 74.21875 
Q 39.75 74.21875 46.484375 68.546875 
Q 53.21875 62.890625 53.21875 53.421875 
Q 53.21875 48.921875 51.53125 44.890625 
Q 49.859375 40.875 45.40625 35.40625 
Q 44.1875 33.984375 37.640625 27.21875 
Q 31.109375 20.453125 19.1875 8.296875 
z
" id="DejaVuSans-50"/>
      </defs>
      <g transform="translate(130.941382 266.598437)scale(0.1 -0.1)">
       <use xlink:href="#DejaVuSans-8722"/>
       <use x="83.789062" xlink:href="#DejaVuSans-50"/>
       <use x="147.412109" xlink:href="#DejaVuSans-48"/>
       <use x="211.035156" xlink:href="#DejaVuSans-48"/>
       <use x="274.658203" xlink:href="#DejaVuSans-48"/>
      </g>
     </g>
    </g>
    <g id="xtick_3">
     <g id="line2d_3">
      <g>
       <use style="stroke:#000000;stroke-width:0.8;" x="204.730206" xlink:href="#m644f4956a5" y="252"/>
      </g>
     </g>
     <g id="text_3">
      <!-- 0 -->
      <g transform="translate(201.548956 266.598437)scale(0.1 -0.1)">
       <use xlink:href="#DejaVuSans-48"/>
      </g>
     </g>
    </g>
    <g id="xtick_4">
     <g id="line2d_4">
      <g>
       <use style="stroke:#000000;stroke-width:0.8;" x="261.604186" xlink:href="#m644f4956a5" y="252"/>
      </g>
     </g>
     <g id="text_4">
      <!-- 2000 -->
      <g transform="translate(248.879186 266.598437)scale(0.1 -0.1)">
       <use xlink:href="#DejaVuSans-50"/>
       <use x="63.623047" xlink:href="#DejaVuSans-48"/>
       <use x="127.246094" xlink:href="#DejaVuSans-48"/>
       <use x="190.869141" xlink:href="#DejaVuSans-48"/>
      </g>
     </g>
    </g>
    <g id="xtick_5">
     <g id="line2d_5">
      <g>
       <use style="stroke:#000000;stroke-width:0.8;" x="318.478166" xlink:href="#m644f4956a5" y="252"/>
      </g>
     </g>
     <g id="text_5">
      <!-- 4000 -->
      <g transform="translate(305.753166 266.598437)scale(0.1 -0.1)">
       <use xlink:href="#DejaVuSans-52"/>
       <use x="63.623047" xlink:href="#DejaVuSans-48"/>
       <use x="127.246094" xlink:href="#DejaVuSans-48"/>
       <use x="190.869141" xlink:href="#DejaVuSans-48"/>
      </g>
     </g>
    </g>
    <g id="xtick_6">
     <g id="line2d_6">
      <g>
       <use style="stroke:#000000;stroke-width:0.8;" x="375.352147" xlink:href="#m644f4956a5" y="252"/>
      </g>
     </g>
     <g id="text_6">
      <!-- 6000 -->
      <defs>
       <path d="M 33.015625 40.375 
Q 26.375 40.375 22.484375 35.828125 
Q 18.609375 31.296875 18.609375 23.390625 
Q 18.609375 15.53125 22.484375 10.953125 
Q 26.375 6.390625 33.015625 6.390625 
Q 39.65625 6.390625 43.53125 10.953125 
Q 47.40625 15.53125 47.40625 23.390625 
Q 47.40625 31.296875 43.53125 35.828125 
Q 39.65625 40.375 33.015625 40.375 
z
M 52.59375 71.296875 
L 52.59375 62.3125 
Q 48.875 64.0625 45.09375 64.984375 
Q 41.3125 65.921875 37.59375 65.921875 
Q 27.828125 65.921875 22.671875 59.328125 
Q 17.53125 52.734375 16.796875 39.40625 
Q 19.671875 43.65625 24.015625 45.921875 
Q 28.375 48.1875 33.59375 48.1875 
Q 44.578125 48.1875 50.953125 41.515625 
Q 57.328125 34.859375 57.328125 23.390625 
Q 57.328125 12.15625 50.6875 5.359375 
Q 44.046875 -1.421875 33.015625 -1.421875 
Q 20.359375 -1.421875 13.671875 8.265625 
Q 6.984375 17.96875 6.984375 36.375 
Q 6.984375 53.65625 15.1875 63.9375 
Q 23.390625 74.21875 37.203125 74.21875 
Q 40.921875 74.21875 44.703125 73.484375 
Q 48.484375 72.75 52.59375 71.296875 
z
" id="DejaVuSans-54"/>
      </defs>
      <g transform="translate(362.627147 266.598437)scale(0.1 -0.1)">
       <use xlink:href="#DejaVuSans-54"/>
       <use x="63.623047" xlink:href="#DejaVuSans-48"/>
       <use x="127.246094" xlink:href="#DejaVuSans-48"/>
       <use x="190.869141" xlink:href="#DejaVuSans-48"/>
      </g>
     </g>
    </g>
   </g>
   <g id="matplotlib.axis_2">
    <g id="ytick_1">
     <g id="line2d_7">
      <defs>
       <path d="M 0 0 
L -3.5 0 
" id="mc83259d5e1" style="stroke:#000000;stroke-width:0.8;"/>
      </defs>
      <g>
       <use style="stroke:#000000;stroke-width:0.8;" x="54" xlink:href="#mc83259d5e1" y="223.161902"/>
      </g>
     </g>
     <g id="text_7">
      <!-- −5000 -->
      <defs>
       <path d="M 10.796875 72.90625 
L 49.515625 72.90625 
L 49.515625 64.59375 
L 19.828125 64.59375 
L 19.828125 46.734375 
Q 21.96875 47.46875 24.109375 47.828125 
Q 26.265625 48.1875 28.421875 48.1875 
Q 40.625 48.1875 47.75 41.5 
Q 54.890625 34.8125 54.890625 23.390625 
Q 54.890625 11.625 47.5625 5.09375 
Q 40.234375 -1.421875 26.90625 -1.421875 
Q 22.3125 -1.421875 17.546875 -0.640625 
Q 12.796875 0.140625 7.71875 1.703125 
L 7.71875 11.625 
Q 12.109375 9.234375 16.796875 8.0625 
Q 21.484375 6.890625 26.703125 6.890625 
Q 35.15625 6.890625 40.078125 11.328125 
Q 45.015625 15.765625 45.015625 23.390625 
Q 45.015625 31 40.078125 35.4375 
Q 35.15625 39.890625 26.703125 39.890625 
Q 22.75 39.890625 18.8125 39.015625 
Q 14.890625 38.140625 10.796875 36.28125 
z
" id="DejaVuSans-53"/>
      </defs>
      <g transform="translate(13.170313 226.961121)scale(0.1 -0.1)">
       <use xlink:href="#DejaVuSans-8722"/>
       <use x="83.789062" xlink:href="#DejaVuSans-53"/>
       <use x="147.412109" xlink:href="#DejaVuSans-48"/>
       <use x="211.035156" xlink:href="#DejaVuSans-48"/>
       <use x="274.658203" xlink:href="#DejaVuSans-48"/>
      </g>
     </g>
    </g>
    <g id="ytick_2">
     <g id="line2d_8">
      <g>
       <use style="stroke:#000000;stroke-width:0.8;" x="54" xlink:href="#mc83259d5e1" y="185.997966"/>
      </g>
     </g>
     <g id="text_8">
      <!-- 0 -->
      <g transform="translate(40.6375 189.797185)scale(0.1 -0.1)">
       <use xlink:href="#DejaVuSans-48"/>
      </g>
     </g>
    </g>
    <g id="ytick_3">
     <g id="line2d_9">
      <g>
       <use style="stroke:#000000;stroke-width:0.8;" x="54" xlink:href="#mc83259d5e1" y="148.834031"/>
      </g>
     </g>
     <g id="text_9">
      <!-- 5000 -->
      <g transform="translate(21.55 152.63325)scale(0.1 -0.1)">
       <use xlink:href="#DejaVuSans-53"/>
       <use x="63.623047" xlink:href="#DejaVuSans-48"/>
       <use x="127.246094" xlink:href="#DejaVuSans-48"/>
       <use x="190.869141" xlink:href="#DejaVuSans-48"/>
      </g>
     </g>
    </g>
    <g id="ytick_4">
     <g id="line2d_10">
      <g>
       <use style="stroke:#000000;stroke-width:0.8;" x="54" xlink:href="#mc83259d5e1" y="111.670095"/>
      </g>
     </g>
     <g id="text_10">
      <!-- 10000 -->
      <defs>
       <path d="M 12.40625 8.296875 
L 28.515625 8.296875 
L 28.515625 63.921875 
L 10.984375 60.40625 
L 10.984375 69.390625 
L 28.421875 72.90625 
L 38.28125 72.90625 
L 38.28125 8.296875 
L 54.390625 8.296875 
L 54.390625 0 
L 12.40625 0 
z
" id="DejaVuSans-49"/>
      </defs>
      <g transform="translate(15.1875 115.469314)scale(0.1 -0.1)">
       <use xlink:href="#DejaVuSans-49"/>
       <use x="63.623047" xlink:href="#DejaVuSans-48"/>
       <use x="127.246094" xlink:href="#DejaVuSans-48"/>
       <use x="190.869141" xlink:href="#DejaVuSans-48"/>
       <use x="254.492188" xlink:href="#DejaVuSans-48"/>
      </g>
     </g>
    </g>
    <g id="ytick_5">
     <g id="line2d_11">
      <g>
       <use style="stroke:#000000;stroke-width:0.8;" x="54" xlink:href="#mc83259d5e1" y="74.50616"/>
      </g>
     </g>
     <g id="text_11">
      <!-- 15000 -->
      <g transform="translate(15.1875 78.305379)scale(0.1 -0.1)">
       <use xlink:href="#DejaVuSans-49"/>
       <use x="63.623047" xlink:href="#DejaVuSans-53"/>
       <use x="127.246094" xlink:href="#DejaVuSans-48"/>
       <use x="190.869141" xlink:href="#DejaVuSans-48"/>
       <use x="254.492188" xlink:href="#DejaVuSans-48"/>
      </g>
     </g>
    </g>
    <g id="ytick_6">
     <g id="line2d_12">
      <g>
       <use style="stroke:#000000;stroke-width:0.8;" x="54" xlink:href="#mc83259d5e1" y="37.342224"/>
      </g>
     </g>
     <g id="text_12">
      <!-- 20000 -->
      <g transform="translate(15.1875 41.141443)scale(0.1 -0.1)">
       <use xlink:href="#DejaVuSans-50"/>
       <use x="63.623047" xlink:href="#DejaVuSans-48"/>
       <use x="127.246094" xlink:href="#DejaVuSans-48"/>
       <use x="190.869141" xlink:href="#DejaVuSans-48"/>
       <use x="254.492188" xlink:href="#DejaVuSans-48"/>
      </g>
     </g>
    </g>
   </g>
   <g id="patch_3">
    <path d="M 54 252 
L 54 34.56 
" style="fill:none;stroke:#000000;stroke-linecap:square;stroke-linejoin:miter;stroke-width:0.8;"/>
   </g>
   <g id="patch_4">
    <path d="M 388.8 252 
L 388.8 34.56 
" style="fill:none;stroke:#000000;stroke-linecap:square;stroke-linejoin:miter;stroke-width:0.8;"/>
   </g>
   <g id="patch_5">
    <path d="M 54 252 
L 388.8 252 
" style="fill:none;stroke:#000000;stroke-linecap:square;stroke-linejoin:miter;stroke-width:0.8;"/>
   </g>
   <g id="patch_6">
    <path d="M 54 34.56 
L 388.8 34.56 
" style="fill:none;stroke:#000000;stroke-linecap:square;stroke-linejoin:miter;stroke-width:0.8;"/>
   </g>
  </g>
 </g>
 <defs>
  <clipPath id="pf5ba82f782">
   <rect height="217.44" width="334.8" x="54" y="34.56"/>
  </clipPath>
 </defs>
</svg>
