<?xml version="1.0" encoding="utf-8" standalone="no"?>
<!DOCTYPE svg PUBLIC "-//W3C//DTD SVG 1.1//EN"
  "http://www.w3.org/Graphics/SVG/1.1/DTD/svg11.dtd">
<!-- Created with matplotlib (https://matplotlib.org/) -->
<svg height="576pt" version="1.1" viewBox="0 0 720 576" width="720pt" xmlns="http://www.w3.org/2000/svg" xmlns:xlink="http://www.w3.org/1999/xlink">
 <defs>
  <style type="text/css">
*{stroke-linecap:butt;stroke-linejoin:round;}
  </style>
 </defs>
 <g id="figure_1">
  <g id="patch_1">
   <path d="M 0 576 
L 720 576 
L 720 0 
L 0 0 
z
" style="fill:#ffffff;"/>
  </g>
  <g id="axes_1">
   <g id="patch_2">
    <path d="M 90 504 
L 648 504 
L 648 69.12 
L 90 69.12 
z
" style="fill:#ffffff;"/>
   </g>
   <g id="matplotlib.axis_1">
    <g id="xtick_1">
     <g id="line2d_1">
      <defs>
       <path d="M 0 0 
L 0 3.5 
" id="m796a4a621e" style="stroke:#000000;stroke-width:0.8;"/>
      </defs>
      <g>
       <use style="stroke:#000000;stroke-width:0.8;" x="115.363636" xlink:href="#m796a4a621e" y="504"/>
      </g>
     </g>
     <g id="text_1">
      <!-- 0 -->
      <defs>
       <path d="M 31.78125 66.40625 
Q 24.171875 66.40625 20.328125 58.90625 
Q 16.5 51.421875 16.5 36.375 
Q 16.5 21.390625 20.328125 13.890625 
Q 24.171875 6.390625 31.78125 6.390625 
Q 39.453125 6.390625 43.28125 13.890625 
Q 47.125 21.390625 47.125 36.375 
Q 47.125 51.421875 43.28125 58.90625 
Q 39.453125 66.40625 31.78125 66.40625 
z
M 31.78125 74.21875 
Q 44.046875 74.21875 50.515625 64.515625 
Q 56.984375 54.828125 56.984375 36.375 
Q 56.984375 17.96875 50.515625 8.265625 
Q 44.046875 -1.421875 31.78125 -1.421875 
Q 19.53125 -1.421875 13.0625 8.265625 
Q 6.59375 17.96875 6.59375 36.375 
Q 6.59375 54.828125 13.0625 64.515625 
Q 19.53125 74.21875 31.78125 74.21875 
z
" id="DejaVuSans-48"/>
      </defs>
      <g transform="translate(112.182386 518.598438)scale(0.1 -0.1)">
       <use xlink:href="#DejaVuSans-48"/>
      </g>
     </g>
    </g>
    <g id="xtick_2">
     <g id="line2d_2">
      <g>
       <use style="stroke:#000000;stroke-width:0.8;" x="177.651545" xlink:href="#m796a4a621e" y="504"/>
      </g>
     </g>
     <g id="text_2">
      <!-- 250 -->
      <defs>
       <path d="M 19.1875 8.296875 
L 53.609375 8.296875 
L 53.609375 0 
L 7.328125 0 
L 7.328125 8.296875 
Q 12.9375 14.109375 22.625 23.890625 
Q 32.328125 33.6875 34.8125 36.53125 
Q 39.546875 41.84375 41.421875 45.53125 
Q 43.3125 49.21875 43.3125 52.78125 
Q 43.3125 58.59375 39.234375 62.25 
Q 35.15625 65.921875 28.609375 65.921875 
Q 23.96875 65.921875 18.8125 64.3125 
Q 13.671875 62.703125 7.8125 59.421875 
L 7.8125 69.390625 
Q 13.765625 71.78125 18.9375 73 
Q 24.125 74.21875 28.421875 74.21875 
Q 39.75 74.21875 46.484375 68.546875 
Q 53.21875 62.890625 53.21875 53.421875 
Q 53.21875 48.921875 51.53125 44.890625 
Q 49.859375 40.875 45.40625 35.40625 
Q 44.1875 33.984375 37.640625 27.21875 
Q 31.109375 20.453125 19.1875 8.296875 
z
" id="DejaVuSans-50"/>
       <path d="M 10.796875 72.90625 
L 49.515625 72.90625 
L 49.515625 64.59375 
L 19.828125 64.59375 
L 19.828125 46.734375 
Q 21.96875 47.46875 24.109375 47.828125 
Q 26.265625 48.1875 28.421875 48.1875 
Q 40.625 48.1875 47.75 41.5 
Q 54.890625 34.8125 54.890625 23.390625 
Q 54.890625 11.625 47.5625 5.09375 
Q 40.234375 -1.421875 26.90625 -1.421875 
Q 22.3125 -1.421875 17.546875 -0.640625 
Q 12.796875 0.140625 7.71875 1.703125 
L 7.71875 11.625 
Q 12.109375 9.234375 16.796875 8.0625 
Q 21.484375 6.890625 26.703125 6.890625 
Q 35.15625 6.890625 40.078125 11.328125 
Q 45.015625 15.765625 45.015625 23.390625 
Q 45.015625 31 40.078125 35.4375 
Q 35.15625 39.890625 26.703125 39.890625 
Q 22.75 39.890625 18.8125 39.015625 
Q 14.890625 38.140625 10.796875 36.28125 
z
" id="DejaVuSans-53"/>
      </defs>
      <g transform="translate(168.107795 518.598438)scale(0.1 -0.1)">
       <use xlink:href="#DejaVuSans-50"/>
       <use x="63.623047" xlink:href="#DejaVuSans-53"/>
       <use x="127.246094" xlink:href="#DejaVuSans-48"/>
      </g>
     </g>
    </g>
    <g id="xtick_3">
     <g id="line2d_3">
      <g>
       <use style="stroke:#000000;stroke-width:0.8;" x="239.939453" xlink:href="#m796a4a621e" y="504"/>
      </g>
     </g>
     <g id="text_3">
      <!-- 500 -->
      <g transform="translate(230.395703 518.598438)scale(0.1 -0.1)">
       <use xlink:href="#DejaVuSans-53"/>
       <use x="63.623047" xlink:href="#DejaVuSans-48"/>
       <use x="127.246094" xlink:href="#DejaVuSans-48"/>
      </g>
     </g>
    </g>
    <g id="xtick_4">
     <g id="line2d_4">
      <g>
       <use style="stroke:#000000;stroke-width:0.8;" x="302.227362" xlink:href="#m796a4a621e" y="504"/>
      </g>
     </g>
     <g id="text_4">
      <!-- 750 -->
      <defs>
       <path d="M 8.203125 72.90625 
L 55.078125 72.90625 
L 55.078125 68.703125 
L 28.609375 0 
L 18.3125 0 
L 43.21875 64.59375 
L 8.203125 64.59375 
z
" id="DejaVuSans-55"/>
      </defs>
      <g transform="translate(292.683612 518.598438)scale(0.1 -0.1)">
       <use xlink:href="#DejaVuSans-55"/>
       <use x="63.623047" xlink:href="#DejaVuSans-53"/>
       <use x="127.246094" xlink:href="#DejaVuSans-48"/>
      </g>
     </g>
    </g>
    <g id="xtick_5">
     <g id="line2d_5">
      <g>
       <use style="stroke:#000000;stroke-width:0.8;" x="364.515271" xlink:href="#m796a4a621e" y="504"/>
      </g>
     </g>
     <g id="text_5">
      <!-- 1000 -->
      <defs>
       <path d="M 12.40625 8.296875 
L 28.515625 8.296875 
L 28.515625 63.921875 
L 10.984375 60.40625 
L 10.984375 69.390625 
L 28.421875 72.90625 
L 38.28125 72.90625 
L 38.28125 8.296875 
L 54.390625 8.296875 
L 54.390625 0 
L 12.40625 0 
z
" id="DejaVuSans-49"/>
      </defs>
      <g transform="translate(351.790271 518.598438)scale(0.1 -0.1)">
       <use xlink:href="#DejaVuSans-49"/>
       <use x="63.623047" xlink:href="#DejaVuSans-48"/>
       <use x="127.246094" xlink:href="#DejaVuSans-48"/>
       <use x="190.869141" xlink:href="#DejaVuSans-48"/>
      </g>
     </g>
    </g>
    <g id="xtick_6">
     <g id="line2d_6">
      <g>
       <use style="stroke:#000000;stroke-width:0.8;" x="426.803179" xlink:href="#m796a4a621e" y="504"/>
      </g>
     </g>
     <g id="text_6">
      <!-- 1250 -->
      <g transform="translate(414.078179 518.598438)scale(0.1 -0.1)">
       <use xlink:href="#DejaVuSans-49"/>
       <use x="63.623047" xlink:href="#DejaVuSans-50"/>
       <use x="127.246094" xlink:href="#DejaVuSans-53"/>
       <use x="190.869141" xlink:href="#DejaVuSans-48"/>
      </g>
     </g>
    </g>
    <g id="xtick_7">
     <g id="line2d_7">
      <g>
       <use style="stroke:#000000;stroke-width:0.8;" x="489.091088" xlink:href="#m796a4a621e" y="504"/>
      </g>
     </g>
     <g id="text_7">
      <!-- 1500 -->
      <g transform="translate(476.366088 518.598438)scale(0.1 -0.1)">
       <use xlink:href="#DejaVuSans-49"/>
       <use x="63.623047" xlink:href="#DejaVuSans-53"/>
       <use x="127.246094" xlink:href="#DejaVuSans-48"/>
       <use x="190.869141" xlink:href="#DejaVuSans-48"/>
      </g>
     </g>
    </g>
    <g id="xtick_8">
     <g id="line2d_8">
      <g>
       <use style="stroke:#000000;stroke-width:0.8;" x="551.378996" xlink:href="#m796a4a621e" y="504"/>
      </g>
     </g>
     <g id="text_8">
      <!-- 1750 -->
      <g transform="translate(538.653996 518.598438)scale(0.1 -0.1)">
       <use xlink:href="#DejaVuSans-49"/>
       <use x="63.623047" xlink:href="#DejaVuSans-55"/>
       <use x="127.246094" xlink:href="#DejaVuSans-53"/>
       <use x="190.869141" xlink:href="#DejaVuSans-48"/>
      </g>
     </g>
    </g>
    <g id="xtick_9">
     <g id="line2d_9">
      <g>
       <use style="stroke:#000000;stroke-width:0.8;" x="613.666905" xlink:href="#m796a4a621e" y="504"/>
      </g>
     </g>
     <g id="text_9">
      <!-- 2000 -->
      <g transform="translate(600.941905 518.598438)scale(0.1 -0.1)">
       <use xlink:href="#DejaVuSans-50"/>
       <use x="63.623047" xlink:href="#DejaVuSans-48"/>
       <use x="127.246094" xlink:href="#DejaVuSans-48"/>
       <use x="190.869141" xlink:href="#DejaVuSans-48"/>
      </g>
     </g>
    </g>
   </g>
   <g id="matplotlib.axis_2">
    <g id="ytick_1">
     <g id="line2d_10">
      <defs>
       <path d="M 0 0 
L -3.5 0 
" id="m4e87b8d063" style="stroke:#000000;stroke-width:0.8;"/>
      </defs>
      <g>
       <use style="stroke:#000000;stroke-width:0.8;" x="90" xlink:href="#m4e87b8d063" y="484.35943"/>
      </g>
     </g>
     <g id="text_10">
      <!-- −3 -->
      <defs>
       <path d="M 10.59375 35.5 
L 73.1875 35.5 
L 73.1875 27.203125 
L 10.59375 27.203125 
z
" id="DejaVuSans-8722"/>
       <path d="M 40.578125 39.3125 
Q 47.65625 37.796875 51.625 33 
Q 55.609375 28.21875 55.609375 21.1875 
Q 55.609375 10.40625 48.1875 4.484375 
Q 40.765625 -1.421875 27.09375 -1.421875 
Q 22.515625 -1.421875 17.65625 -0.515625 
Q 12.796875 0.390625 7.625 2.203125 
L 7.625 11.71875 
Q 11.71875 9.328125 16.59375 8.109375 
Q 21.484375 6.890625 26.8125 6.890625 
Q 36.078125 6.890625 40.9375 10.546875 
Q 45.796875 14.203125 45.796875 21.1875 
Q 45.796875 27.640625 41.28125 31.265625 
Q 36.765625 34.90625 28.71875 34.90625 
L 20.21875 34.90625 
L 20.21875 43.015625 
L 29.109375 43.015625 
Q 36.375 43.015625 40.234375 45.921875 
Q 44.09375 48.828125 44.09375 54.296875 
Q 44.09375 59.90625 40.109375 62.90625 
Q 36.140625 65.921875 28.71875 65.921875 
Q 24.65625 65.921875 20.015625 65.03125 
Q 15.375 64.15625 9.8125 62.3125 
L 9.8125 71.09375 
Q 15.4375 72.65625 20.34375 73.4375 
Q 25.25 74.21875 29.59375 74.21875 
Q 40.828125 74.21875 47.359375 69.109375 
Q 53.90625 64.015625 53.90625 55.328125 
Q 53.90625 49.265625 50.4375 45.09375 
Q 46.96875 40.921875 40.578125 39.3125 
z
" id="DejaVuSans-51"/>
      </defs>
      <g transform="translate(68.257812 488.158649)scale(0.1 -0.1)">
       <use xlink:href="#DejaVuSans-8722"/>
       <use x="83.789062" xlink:href="#DejaVuSans-51"/>
      </g>
     </g>
    </g>
    <g id="ytick_2">
     <g id="line2d_11">
      <g>
       <use style="stroke:#000000;stroke-width:0.8;" x="90" xlink:href="#m4e87b8d063" y="424.494858"/>
      </g>
     </g>
     <g id="text_11">
      <!-- −2 -->
      <g transform="translate(68.257812 428.294077)scale(0.1 -0.1)">
       <use xlink:href="#DejaVuSans-8722"/>
       <use x="83.789062" xlink:href="#DejaVuSans-50"/>
      </g>
     </g>
    </g>
    <g id="ytick_3">
     <g id="line2d_12">
      <g>
       <use style="stroke:#000000;stroke-width:0.8;" x="90" xlink:href="#m4e87b8d063" y="364.630286"/>
      </g>
     </g>
     <g id="text_12">
      <!-- −1 -->
      <g transform="translate(68.257812 368.429505)scale(0.1 -0.1)">
       <use xlink:href="#DejaVuSans-8722"/>
       <use x="83.789062" xlink:href="#DejaVuSans-49"/>
      </g>
     </g>
    </g>
    <g id="ytick_4">
     <g id="line2d_13">
      <g>
       <use style="stroke:#000000;stroke-width:0.8;" x="90" xlink:href="#m4e87b8d063" y="304.765714"/>
      </g>
     </g>
     <g id="text_13">
      <!-- 0 -->
      <g transform="translate(76.6375 308.564933)scale(0.1 -0.1)">
       <use xlink:href="#DejaVuSans-48"/>
      </g>
     </g>
    </g>
    <g id="ytick_5">
     <g id="line2d_14">
      <g>
       <use style="stroke:#000000;stroke-width:0.8;" x="90" xlink:href="#m4e87b8d063" y="244.901142"/>
      </g>
     </g>
     <g id="text_14">
      <!-- 1 -->
      <g transform="translate(76.6375 248.700361)scale(0.1 -0.1)">
       <use xlink:href="#DejaVuSans-49"/>
      </g>
     </g>
    </g>
    <g id="ytick_6">
     <g id="line2d_15">
      <g>
       <use style="stroke:#000000;stroke-width:0.8;" x="90" xlink:href="#m4e87b8d063" y="185.03657"/>
      </g>
     </g>
     <g id="text_15">
      <!-- 2 -->
      <g transform="translate(76.6375 188.835788)scale(0.1 -0.1)">
       <use xlink:href="#DejaVuSans-50"/>
      </g>
     </g>
    </g>
    <g id="ytick_7">
     <g id="line2d_16">
      <g>
       <use style="stroke:#000000;stroke-width:0.8;" x="90" xlink:href="#m4e87b8d063" y="125.171998"/>
      </g>
     </g>
     <g id="text_16">
      <!-- 3 -->
      <g transform="translate(76.6375 128.971216)scale(0.1 -0.1)">
       <use xlink:href="#DejaVuSans-51"/>
      </g>
     </g>
    </g>
   </g>
   <g id="line2d_17">
    <path clip-path="url(#p8a14379fa7)" d="M 115.363636 197.492109 
L 115.612788 285.421753 
L 115.86194 286.176759 
L 116.111091 396.814024 
L 116.360243 396.834435 
L 116.858546 336.420998 
L 117.356849 315.365203 
L 117.606001 309.918036 
L 117.855153 309.918036 
L 118.353456 177.010573 
L 118.602608 290.999214 
L 118.851759 185.828745 
L 119.100911 374.836797 
L 119.350063 293.970412 
L 119.599214 438.55359 
L 119.848366 411.657453 
L 120.346669 393.1128 
L 120.595821 365.777965 
L 120.844972 356.042774 
L 121.094124 341.43561 
L 121.343276 349.839465 
L 122.339882 316.161367 
L 122.589034 312.880716 
L 122.838185 314.864686 
L 123.087337 310.963087 
L 123.336489 309.918036 
L 124.083944 309.918036 
L 124.333095 197.912761 
L 124.582247 265.320985 
L 124.831398 245.238604 
L 125.08055 339.605204 
L 125.329702 311.711831 
L 125.578853 419.531665 
L 126.077157 352.802583 
L 126.326308 380.861353 
L 126.57546 394.735263 
L 127.073763 324.526969 
L 127.322915 348.156782 
L 127.572066 354.354852 
L 127.821218 346.78502 
L 128.07037 335.760976 
L 128.319521 313.701481 
L 128.817825 325.740443 
L 129.56528 318.381485 
L 129.814431 312.130812 
L 130.312734 314.701307 
L 130.561886 313.308177 
L 130.811038 313.979986 
L 131.060189 314.086901 
L 131.309341 314.478301 
L 131.558493 309.918036 
L 132.555099 309.918036 
L 132.804251 317.385435 
L 133.302554 270.781308 
L 133.800857 333.732089 
L 134.050009 322.780798 
L 134.548312 309.918036 
L 134.797464 316.752222 
L 135.046615 309.918036 
L 135.295767 175.069781 
L 135.544919 177.544286 
L 135.79407 221.292271 
L 136.292374 451.457788 
L 136.790677 400.144896 
L 137.28898 385.975817 
L 137.538132 379.840444 
L 137.787283 362.806669 
L 138.036435 372.952699 
L 138.285587 349.322977 
L 138.534738 368.543809 
L 138.78389 361.929267 
L 139.531345 331.383153 
L 139.780497 335.579663 
L 140.527951 320.380775 
L 140.777103 321.936625 
L 141.026255 320.327771 
L 141.275406 316.672489 
L 141.524558 315.881699 
L 141.77371 312.032096 
L 142.022861 314.032395 
L 142.272013 314.066415 
L 142.521164 313.371726 
L 142.770316 310.44718 
L 143.019468 310.595692 
L 143.268619 309.918036 
L 144.265226 309.918036 
L 144.514378 312.62666 
L 144.763529 312.05511 
L 145.012681 309.918036 
L 146.258439 309.918036 
L 146.507591 180.173983 
L 146.756742 338.748683 
L 147.005894 419.627162 
L 147.255046 344.468859 
L 147.504197 386.58201 
L 147.753349 371.214735 
L 148.0025 322.261 
L 148.251652 394.372307 
L 148.500804 329.444711 
L 148.749955 334.0611 
L 148.999107 354.94901 
L 149.49741 339.590397 
L 149.746562 310.487677 
L 149.995714 347.231973 
L 150.244865 316.160195 
L 150.494017 309.918036 
L 150.743168 336.89158 
L 151.241472 316.589134 
L 151.490623 309.918036 
L 151.739775 309.918036 
L 151.988927 319.954552 
L 152.238078 317.695789 
L 152.48723 309.918036 
L 152.736381 312.844493 
L 152.985533 320.197004 
L 153.234685 309.918036 
L 153.483836 311.636448 
L 153.732988 310.366485 
L 153.98214 318.129321 
L 154.231291 311.494143 
L 154.729595 311.197358 
L 154.978746 309.918036 
L 155.227898 313.979986 
L 155.477049 314.509606 
L 155.975353 309.918036 
L 156.722808 309.918036 
L 157.221111 110.37202 
L 157.470263 258.135289 
L 157.719414 194.763893 
L 157.968566 270.342349 
L 158.217717 149.416869 
L 158.466869 317.666288 
L 158.716021 243.140736 
L 158.965172 353.394676 
L 159.214324 300.676976 
L 159.463476 416.746248 
L 159.712627 373.827154 
L 159.961779 448.667472 
L 160.210931 463.359316 
L 160.460082 408.25962 
L 160.709234 414.953175 
L 160.958385 388.738351 
L 161.207537 386.260861 
L 161.456689 386.690521 
L 161.70584 379.308119 
L 161.954992 378.732358 
L 162.204144 364.657651 
L 162.453295 367.663127 
L 162.702447 361.736122 
L 162.951598 350.897984 
L 163.20075 351.083281 
L 163.699053 338.987731 
L 164.197357 345.304654 
L 164.446508 338.760008 
L 164.69566 336.462697 
L 165.193963 326.421657 
L 165.443115 328.008963 
L 165.941418 320.659417 
L 166.19057 319.388578 
L 166.439721 313.396317 
L 166.688873 317.106938 
L 166.938025 312.742111 
L 167.187176 313.39112 
L 167.436328 309.918036 
L 167.68548 310.304754 
L 167.934631 311.63341 
L 168.183783 311.777968 
L 168.432934 309.918036 
L 170.176996 309.918036 
L 170.426148 198.107972 
L 170.675299 249.407577 
L 170.924451 228.965218 
L 171.173602 248.908236 
L 171.422754 114.293706 
L 171.671906 335.878694 
L 171.921057 199.878997 
L 172.170209 350.275277 
L 172.419361 237.614951 
L 172.668512 406.774025 
L 172.917664 360.532695 
L 173.166816 122.02811 
L 173.415967 366.677027 
L 173.665119 315.93732 
L 173.91427 409.124147 
L 174.163422 343.499475 
L 174.412574 406.87899 
L 174.661725 420.115712 
L 174.910877 340.497904 
L 175.160029 421.017066 
L 175.40918 392.263826 
L 175.658332 399.137152 
L 175.907483 420.382958 
L 176.156635 382.159755 
L 176.405787 381.1603 
L 176.654938 392.040127 
L 176.90409 367.616875 
L 177.153242 385.169284 
L 177.402393 376.243391 
L 177.651545 357.153496 
L 177.900697 383.940947 
L 178.149848 374.974359 
L 178.399 355.380324 
L 178.648151 387.971305 
L 178.897303 386.107735 
L 179.146455 361.464185 
L 179.395606 362.836212 
L 179.644758 358.97555 
L 179.89391 377.943276 
L 180.143061 349.49024 
L 180.392213 376.441731 
L 180.641365 336.16189 
L 180.890516 367.707203 
L 181.139668 338.473042 
L 181.388819 270.306033 
L 181.637971 330.386719 
L 181.887123 354.983148 
L 182.136274 325.931204 
L 182.385426 353.934159 
L 182.634578 334.43106 
L 182.883729 345.904105 
L 183.132881 320.848914 
L 183.382033 338.864998 
L 183.631184 326.416717 
L 183.880336 333.713058 
L 184.129487 322.897318 
L 184.378639 331.463384 
L 184.627791 322.355815 
L 184.876942 324.237695 
L 185.126094 320.624462 
L 185.375246 324.376853 
L 185.624397 326.130369 
L 185.873549 320.758784 
L 186.1227 322.79863 
L 186.371852 323.829783 
L 186.621004 314.511664 
L 186.870155 321.845147 
L 187.119307 320.782368 
L 187.61761 321.862274 
L 187.866762 315.932911 
L 188.365065 317.789101 
L 188.614217 313.006717 
L 188.863368 316.68593 
L 189.11252 314.90972 
L 189.361672 315.569444 
L 189.610823 315.7349 
L 189.859975 316.40242 
L 190.109127 312.579133 
L 190.358278 312.674605 
L 190.60743 313.238937 
L 190.856582 311.90101 
L 191.105733 315.127181 
L 191.604036 311.882538 
L 191.853188 312.376086 
L 192.10234 313.876212 
L 192.351491 312.982832 
L 192.600643 309.918036 
L 192.849795 311.427775 
L 193.098946 309.918036 
L 193.348098 309.918036 
L 193.59725 311.755838 
L 193.846401 311.755838 
L 194.095553 309.918036 
L 194.344704 311.562051 
L 194.593856 311.269133 
L 194.843008 309.918036 
L 195.092159 312.962793 
L 195.341311 309.918036 
L 195.839614 309.918036 
L 196.088766 311.041746 
L 196.337917 309.918036 
L 198.580282 309.918036 
L 198.829434 260.622875 
L 199.078585 347.645447 
L 199.327737 343.528015 
L 199.576889 348.908304 
L 199.82604 296.257605 
L 200.075192 330.771615 
L 200.324344 319.444957 
L 200.573495 313.776922 
L 201.071799 309.918036 
L 201.32095 311.528542 
L 201.819253 208.345685 
L 202.068405 417.844756 
L 202.317557 403.779171 
L 202.566708 365.924192 
L 202.81586 369.22046 
L 203.065012 385.067458 
L 203.314163 361.204344 
L 203.563315 356.349662 
L 203.812467 347.498852 
L 204.061618 331.123635 
L 204.31077 334.043826 
L 204.559921 321.588289 
L 204.809073 319.838452 
L 205.058225 316.420612 
L 205.307376 318.769849 
L 205.556528 311.510338 
L 205.80568 312.01834 
L 206.054831 309.918036 
L 206.303983 309.918036 
L 206.553134 311.104065 
L 206.802286 309.918036 
L 207.051438 310.400443 
L 207.300589 245.093483 
L 207.549741 397.158583 
L 207.798893 396.533709 
L 208.048044 380.869899 
L 208.297196 343.661474 
L 208.546348 366.520462 
L 208.795499 340.120917 
L 209.044651 350.780768 
L 209.293802 314.151017 
L 209.542954 338.316065 
L 209.792106 316.589134 
L 210.041257 338.097754 
L 210.539561 314.174371 
L 210.788712 315.527605 
L 211.037864 315.285649 
L 211.287016 311.702224 
L 211.536167 314.696587 
L 211.785319 311.728718 
L 212.03447 310.900471 
L 212.532774 314.291825 
L 212.781925 309.918036 
L 213.280229 309.918036 
L 213.52938 316.113132 
L 213.778532 309.918036 
L 214.027684 311.956607 
L 214.276835 309.918036 
L 214.525987 202.008822 
L 214.775138 422.747954 
L 215.273442 362.918135 
L 215.522593 363.905352 
L 215.771745 315.857872 
L 216.270048 311.775064 
L 216.5192 309.918036 
L 216.768351 373.279781 
L 217.017503 220.412733 
L 217.266655 329.435626 
L 217.515806 313.029039 
L 217.764958 310.743716 
L 218.01411 370.569703 
L 218.263261 234.093573 
L 218.512413 271.730832 
L 218.761565 326.215703 
L 219.010716 327.15867 
L 219.259868 315.688805 
L 219.509019 315.423133 
L 219.758171 313.11731 
L 220.007323 316.113132 
L 220.256474 309.918036 
L 220.505626 280.086592 
L 220.754778 329.444836 
L 221.003929 206.208037 
L 221.253081 419.633825 
L 221.751384 364.694641 
L 222.000536 354.342151 
L 222.249687 391.236507 
L 222.747991 350.952321 
L 222.997142 348.651262 
L 223.246294 345.23499 
L 223.495446 337.091516 
L 223.744597 341.788584 
L 224.242901 322.909997 
L 224.492052 325.771002 
L 224.741204 317.519165 
L 224.990355 323.861924 
L 225.239507 322.663612 
L 225.488659 315.657162 
L 225.73781 316.323789 
L 226.236114 319.451253 
L 226.485265 311.598184 
L 226.734417 314.166012 
L 226.983568 312.110336 
L 227.23272 317.116439 
L 227.731023 310.537388 
L 227.980175 309.918036 
L 228.229327 314.127736 
L 228.478478 314.773857 
L 228.72763 309.918036 
L 228.976782 311.90101 
L 229.225933 311.57843 
L 229.475085 312.079335 
L 229.724236 309.918036 
L 229.973388 309.918036 
L 230.22254 310.338903 
L 230.471691 311.71618 
L 230.720843 309.918036 
L 233.212359 309.918036 
L 233.461511 220.980703 
L 233.710663 386.668911 
L 233.959814 394.497306 
L 234.208966 326.219941 
L 234.458118 348.28797 
L 234.707269 353.744482 
L 234.956421 340.304831 
L 235.205572 316.235548 
L 235.454724 347.09615 
L 235.703876 324.071287 
L 235.953027 316.589134 
L 236.202179 336.01072 
L 236.700482 309.918036 
L 236.949634 309.918036 
L 237.198785 317.695789 
L 237.447937 311.636448 
L 237.697089 309.918036 
L 237.94624 309.918036 
L 238.195392 318.886165 
L 238.444544 311.494143 
L 238.693695 311.310663 
L 238.942847 318.970871 
L 239.191999 309.918036 
L 239.44115 309.918036 
L 239.690302 313.979986 
L 239.939453 313.132751 
L 240.188605 311.865723 
L 240.437757 309.918036 
L 241.185212 309.918036 
L 241.434363 132.047795 
L 241.683515 229.277339 
L 242.181818 111.241522 
L 242.43097 216.110307 
L 242.680121 152.678991 
L 242.929273 210.447803 
L 243.178425 211.34179 
L 243.427576 252.243569 
L 243.676728 243.086445 
L 243.92588 273.020186 
L 244.175031 283.155691 
L 244.424183 318.427747 
L 244.673335 266.392072 
L 244.922486 294.727129 
L 245.669941 428.885917 
L 245.919093 386.148193 
L 246.168244 484.232727 
L 246.417396 437.96902 
L 246.666548 446.373673 
L 246.915699 459.482016 
L 247.164851 404.658045 
L 247.663154 431.34815 
L 248.410609 405.955186 
L 248.659761 436.49309 
L 248.908912 395.988091 
L 249.158064 398.754627 
L 249.407216 403.972465 
L 249.656367 401.365258 
L 249.905519 403.112563 
L 250.403822 383.992481 
L 250.652974 380.643847 
L 250.902125 369.917763 
L 251.151277 390.701455 
L 251.400429 371.698093 
L 251.64958 390.030441 
L 251.898732 384.997873 
L 252.147884 371.211331 
L 252.397035 367.008128 
L 252.646187 377.831201 
L 253.14449 357.124507 
L 253.393642 368.443305 
L 253.642793 360.731486 
L 253.891945 368.120641 
L 254.141097 363.209571 
L 254.6394 359.681389 
L 254.888552 358.633141 
L 255.137703 357.086046 
L 255.386855 340.177209 
L 255.636006 338.319656 
L 255.885158 350.092395 
L 256.13431 355.981842 
L 256.383461 341.906965 
L 256.632613 351.85327 
L 256.881765 344.14878 
L 257.130916 349.302283 
L 257.380068 345.87427 
L 257.62922 353.050502 
L 257.878371 345.390801 
L 258.127523 346.397444 
L 258.376674 343.588527 
L 258.625826 347.736948 
L 258.874978 344.066042 
L 259.124129 344.015239 
L 259.373281 350.162851 
L 259.622433 340.261827 
L 259.871584 342.866823 
L 260.120736 335.98046 
L 260.369887 342.446097 
L 260.619039 342.772388 
L 261.117342 333.28169 
L 261.366494 338.863455 
L 261.615646 331.833164 
L 261.864797 335.504734 
L 262.113949 331.192587 
L 262.363101 333.305632 
L 262.612252 330.277101 
L 262.861404 329.874707 
L 263.110555 327.789798 
L 263.359707 328.190627 
L 263.608859 322.189643 
L 263.85801 324.273243 
L 264.107162 321.695556 
L 264.356314 326.442267 
L 264.605465 321.016197 
L 264.854617 321.958508 
L 265.35292 316.708312 
L 265.602072 316.85253 
L 265.851223 317.741544 
L 266.100375 316.516546 
L 266.349527 319.878794 
L 266.598678 313.120353 
L 266.84783 317.988818 
L 267.346133 314.609703 
L 267.595285 315.419546 
L 267.844437 317.404152 
L 268.093588 317.573415 
L 268.591891 314.792669 
L 268.841043 316.047982 
L 269.339346 312.71854 
L 269.588498 313.340064 
L 270.086801 315.486654 
L 270.585104 311.60857 
L 270.834256 310.885544 
L 271.083408 310.937176 
L 271.332559 310.369242 
L 271.830863 315.487925 
L 272.578318 309.918036 
L 272.827469 311.573432 
L 273.076621 312.077996 
L 273.325772 311.540759 
L 273.574924 311.994476 
L 273.824076 313.637795 
L 274.073227 309.918036 
L 274.571531 310.885544 
L 274.820682 312.22482 
L 275.069834 311.90101 
L 275.318986 309.918036 
L 275.568137 309.918036 
L 275.817289 311.819013 
L 276.06644 310.304754 
L 276.315592 309.918036 
L 276.564744 311.775064 
L 276.813895 309.918036 
L 277.063047 310.510727 
L 277.312199 313.024743 
L 277.56135 309.918036 
L 283.291838 309.918036 
L 283.540989 175.374334 
L 283.790141 256.682058 
L 284.039293 177.299103 
L 284.288444 295.396941 
L 284.537596 255.308498 
L 284.786748 435.534091 
L 285.035899 321.862079 
L 285.285051 426.676097 
L 285.534203 442.303844 
L 286.032506 381.668879 
L 286.281657 411.736117 
L 286.530809 415.262838 
L 287.029112 385.79441 
L 287.278264 400.551233 
L 287.776567 376.666428 
L 288.025719 402.069877 
L 288.274871 352.804486 
L 288.524022 361.359026 
L 288.773174 388.86632 
L 289.022325 366.866258 
L 289.271477 366.973826 
L 289.520629 364.746363 
L 289.76978 372.617186 
L 290.018932 355.980642 
L 290.268084 384.076019 
L 290.517235 344.128453 
L 291.015538 377.360784 
L 291.26469 357.279288 
L 291.513842 363.411667 
L 292.012145 349.182273 
L 292.261297 350.748848 
L 292.510448 298.797735 
L 292.7596 345.534106 
L 293.008752 341.233467 
L 293.257903 343.728975 
L 293.507055 334.668232 
L 293.756206 334.582517 
L 294.005358 337.993156 
L 294.25451 333.572293 
L 294.503661 334.116755 
L 294.752813 333.555976 
L 295.001965 327.696587 
L 295.251116 325.12514 
L 295.500268 327.405931 
L 295.74942 321.075527 
L 295.998571 322.848295 
L 296.247723 325.512275 
L 296.496874 324.614525 
L 296.746026 319.346048 
L 296.995178 320.505906 
L 297.244329 323.482064 
L 297.493481 318.704806 
L 297.742633 319.748787 
L 297.991784 315.476051 
L 298.240936 319.41676 
L 298.490088 316.839375 
L 298.988391 319.468755 
L 299.237542 318.57652 
L 299.486694 311.508305 
L 299.984997 316.009325 
L 300.234149 314.907911 
L 300.483301 316.34847 
L 300.981604 312.834922 
L 301.230755 313.425613 
L 301.479907 312.235617 
L 301.729059 311.602526 
L 301.97821 309.918036 
L 302.227362 309.918036 
L 302.476514 311.120964 
L 302.725665 309.918036 
L 302.974817 314.713467 
L 303.223969 314.509356 
L 303.971423 309.918036 
L 304.469727 309.918036 
L 304.718878 313.64218 
L 304.96803 309.918036 
L 305.466333 309.918036 
L 305.715485 312.467535 
L 305.964637 309.918036 
L 307.210395 309.918036 
L 307.459546 311.576775 
L 307.708698 312.071147 
L 307.95785 309.918036 
L 309.701911 309.918036 
L 309.951063 310.304754 
L 310.200214 309.918036 
L 312.442579 309.918036 
L 312.691731 180.023956 
L 312.940882 344.613549 
L 313.190034 126.477662 
L 313.439186 348.990539 
L 313.688337 243.686832 
L 313.937489 470.851078 
L 314.18664 306.717904 
L 314.435792 408.679993 
L 314.684944 430.60228 
L 315.183247 394.083617 
L 315.432399 398.150414 
L 315.68155 300.026689 
L 315.930702 411.695016 
L 316.179854 402.703619 
L 316.429005 339.10171 
L 316.678157 391.691216 
L 316.927308 376.997854 
L 317.17646 328.638017 
L 317.425612 386.591269 
L 317.674763 377.186969 
L 317.923915 362.413801 
L 318.173067 364.733649 
L 318.422218 389.916955 
L 318.920522 356.55087 
L 319.418825 462.428946 
L 319.667976 347.980775 
L 320.16628 402.518475 
L 320.415431 363.564813 
L 320.913735 385.024694 
L 321.162886 357.760551 
L 321.412038 361.163712 
L 321.661189 324.210829 
L 321.910341 356.311848 
L 322.159493 361.229562 
L 322.657796 347.850873 
L 322.906948 355.434289 
L 323.156099 354.953946 
L 323.405251 344.171806 
L 323.654403 350.760467 
L 324.152706 332.328732 
L 324.401857 340.79031 
L 324.651009 370.162446 
L 324.900161 106.012443 
L 325.149312 324.342524 
L 325.398464 321.581217 
L 325.647616 326.66687 
L 325.896767 327.36147 
L 326.145919 367.676696 
L 326.395071 316.605139 
L 326.644222 324.696952 
L 326.893374 324.940183 
L 327.142525 317.13464 
L 327.391677 317.476481 
L 327.640829 367.544531 
L 327.88998 320.538102 
L 328.139132 322.079811 
L 328.388284 322.361028 
L 328.637435 319.462304 
L 328.886587 322.917124 
L 329.135739 364.82219 
L 329.38489 317.241731 
L 329.634042 320.592154 
L 329.883193 316.672224 
L 330.132345 320.907394 
L 330.381497 321.424328 
L 330.630648 343.07947 
L 330.8798 314.446477 
L 331.128952 317.512806 
L 331.378103 313.670934 
L 331.876407 322.439417 
L 332.125558 335.556214 
L 332.623861 314.181417 
L 333.122165 317.278546 
L 333.371316 317.600259 
L 333.620468 324.145757 
L 334.118771 314.852687 
L 334.367923 316.603939 
L 334.866226 312.501714 
L 335.115378 322.317953 
L 335.364529 314.708676 
L 335.613681 318.037805 
L 335.862833 315.997496 
L 336.111984 318.928546 
L 336.361136 315.278399 
L 336.610288 316.852864 
L 336.859439 315.664383 
L 337.108591 319.941471 
L 337.606894 315.044148 
L 337.856046 315.405994 
L 338.105197 318.628775 
L 338.354349 316.169417 
L 338.603501 321.541568 
L 338.852652 311.522429 
L 339.101804 315.933083 
L 339.350956 311.949581 
L 339.600107 318.706772 
L 339.849259 315.81875 
L 340.09841 314.498073 
L 340.347562 315.412469 
L 340.596714 314.312169 
L 340.845865 315.471479 
L 341.095017 318.195954 
L 341.344169 314.685739 
L 341.59332 319.744768 
L 342.091624 313.432194 
L 342.340775 312.97922 
L 342.589927 315.56549 
L 342.839078 312.441939 
L 343.08823 318.460868 
L 343.337382 309.918036 
L 343.586533 314.585453 
L 343.835685 316.465588 
L 344.084837 310.652617 
L 344.333988 313.328798 
L 344.58314 311.674326 
L 344.832291 313.982115 
L 345.081443 310.790795 
L 345.330595 316.097029 
L 345.579746 316.615253 
L 345.828898 311.884568 
L 346.07805 311.867478 
L 346.327201 309.918036 
L 346.576353 310.313197 
L 346.825505 312.048663 
L 347.074656 309.918036 
L 347.323808 312.636165 
L 347.572959 310.510727 
L 348.071263 309.918036 
L 348.320414 312.048663 
L 348.569566 309.918036 
L 348.818718 317.027456 
L 349.067869 309.918036 
L 349.566173 309.918036 
L 349.815324 312.080812 
L 350.064476 309.918036 
L 350.811931 309.918036 
L 351.061082 310.968207 
L 351.310234 309.918036 
L 351.559386 314.762097 
L 351.808537 309.918036 
L 352.306841 309.918036 
L 352.555992 312.745329 
L 352.805144 310.346411 
L 353.054295 313.199304 
L 353.303447 309.918036 
L 353.552599 312.07876 
L 353.80175 311.272745 
L 354.050902 309.918036 
L 354.549205 309.918036 
L 354.798357 311.783887 
L 355.047508 309.918036 
L 355.29666 309.918036 
L 355.545812 310.398109 
L 355.794963 309.918036 
L 362.771209 309.918036 
L 363.020361 295.763084 
L 363.269512 88.887273 
L 363.518664 213.026674 
L 363.767816 171.178169 
L 364.016967 161.751614 
L 364.266119 156.852766 
L 364.515271 216.505846 
L 364.764422 221.272165 
L 365.013574 278.592723 
L 365.262725 204.620505 
L 365.511877 270.023314 
L 365.761029 221.753226 
L 366.01018 304.681047 
L 366.259332 242.989831 
L 366.508484 334.462044 
L 366.757635 332.464935 
L 367.006787 374.52222 
L 367.255939 321.648964 
L 367.50509 407.992473 
L 367.754242 377.068464 
L 368.003393 420.627778 
L 368.501697 445.185019 
L 368.750848 423.294643 
L 369 439.740158 
L 369.249152 401.385545 
L 369.498303 420.576422 
L 369.747455 425.493269 
L 370.245758 403.428909 
L 370.49491 420.699735 
L 371.242365 384.599654 
L 371.491516 386.882597 
L 371.740668 385.272341 
L 372.238971 368.160899 
L 372.488123 371.25453 
L 372.737275 378.023885 
L 372.986426 376.39938 
L 373.235578 370.001284 
L 373.484729 368.929774 
L 373.733881 367.133976 
L 373.983033 366.417028 
L 374.730488 356.34055 
L 374.979639 356.107273 
L 375.228791 353.458184 
L 375.477942 353.175261 
L 376.723701 342.209516 
L 376.972852 342.333123 
L 377.222004 341.515989 
L 377.471156 339.151955 
L 377.720307 338.18999 
L 377.969459 336.767448 
L 378.21861 333.244622 
L 378.467762 333.541785 
L 379.215217 330.544891 
L 379.464369 328.2768 
L 379.71352 327.964242 
L 380.211824 328.851215 
L 380.460975 330.011765 
L 380.710127 325.394094 
L 380.959278 329.021583 
L 381.20843 323.345299 
L 381.457582 325.178261 
L 381.706733 320.353263 
L 381.955885 319.774253 
L 382.205037 319.874749 
L 382.454188 318.079733 
L 382.70334 317.832301 
L 382.952492 319.158825 
L 383.201643 319.146788 
L 383.450795 316.915705 
L 383.699946 313.165229 
L 383.949098 313.997665 
L 384.19825 313.390681 
L 384.447401 311.104065 
L 384.945705 312.849899 
L 385.194856 310.36708 
L 385.444008 311.777968 
L 385.693159 309.918036 
L 385.942311 309.918036 
L 386.191463 311.63341 
L 386.440614 309.918036 
L 387.188069 309.918036 
L 387.437221 312.849899 
L 387.686373 309.918036 
L 388.184676 309.918036 
L 388.433827 311.104065 
L 388.682979 309.918036 
L 390.177889 309.918036 
L 390.427041 198.322293 
L 390.676192 286.922541 
L 391.174495 166.697008 
L 391.423647 143.890566 
L 391.672799 249.730992 
L 391.92195 117.301125 
L 392.171102 152.838683 
L 392.420254 137.731022 
L 392.669405 245.61833 
L 392.918557 221.66873 
L 393.167709 246.653846 
L 393.41686 207.939449 
L 393.666012 221.658914 
L 393.915163 274.123005 
L 394.164315 249.246675 
L 394.413467 182.764856 
L 394.662618 258.786832 
L 394.91177 278.809805 
L 395.160922 174.086099 
L 395.410073 301.055448 
L 395.659225 309.492959 
L 395.908376 449.874246 
L 396.157528 318.345776 
L 396.40668 269.243595 
L 396.904983 400.648042 
L 397.154135 321.766809 
L 397.403286 282.142533 
L 397.652438 301.481917 
L 397.90159 373.741217 
L 398.150741 364.141314 
L 398.649044 314.553663 
L 398.898196 435.304184 
L 399.147348 441.172955 
L 399.396499 436.067439 
L 399.894803 366.858629 
L 400.143954 383.879933 
L 400.393106 383.458899 
L 400.642258 422.808502 
L 400.891409 375.12862 
L 401.140561 371.549811 
L 401.389712 418.894065 
L 401.638864 420.720064 
L 402.137167 376.786629 
L 402.386319 418.077503 
L 402.635471 426.39801 
L 402.884622 428.494236 
L 403.133774 348.363369 
L 403.382926 415.10288 
L 403.632077 427.648834 
L 403.881229 463.680338 
L 404.13038 403.53348 
L 404.379532 431.022901 
L 404.628684 434.597551 
L 404.877835 378.615609 
L 405.126987 404.40851 
L 405.376139 396.941882 
L 405.62529 370.107956 
L 405.874442 409.455948 
L 406.123593 332.00859 
L 406.372745 391.84747 
L 406.621897 358.129276 
L 406.871048 403.098047 
L 407.369352 363.310157 
L 407.618503 375.698778 
L 407.867655 406.494445 
L 408.61511 354.33606 
L 408.864261 376.915042 
L 409.113413 421.038409 
L 409.362565 324.247948 
L 409.611716 351.734202 
L 409.860868 407.44896 
L 410.11002 366.352372 
L 410.359171 372.308687 
L 410.608323 421.860898 
L 410.857475 383.570144 
L 411.106626 365.162569 
L 411.355778 411.0947 
L 411.604929 377.466522 
L 411.854081 374.937742 
L 412.103233 386.184352 
L 412.352384 392.064955 
L 412.601536 354.374203 
L 412.850688 373.355055 
L 413.099839 369.314896 
L 413.348991 374.44592 
L 413.847294 360.798233 
L 414.096446 359.997871 
L 414.345597 360.620251 
L 414.594749 346.443701 
L 414.843901 355.088991 
L 415.093052 346.419088 
L 415.342204 367.102407 
L 415.591356 362.543237 
L 415.840507 341.961505 
L 416.089659 368.560784 
L 416.338811 365.678299 
L 416.587962 353.194249 
L 416.837114 360.936218 
L 417.086265 298.011356 
L 417.335417 352.48652 
L 417.584569 357.7805 
L 417.83372 357.462311 
L 418.082872 350.076965 
L 418.581175 357.329255 
L 418.830327 351.508978 
L 419.079478 357.026768 
L 419.32863 354.736062 
L 419.577782 356.274667 
L 419.826933 348.231928 
L 420.076085 350.18026 
L 420.325237 356.714669 
L 420.574388 345.16629 
L 421.072692 349.867364 
L 421.321843 342.60332 
L 421.570995 347.073596 
L 421.820146 348.251843 
L 422.069298 118.991362 
L 422.31845 339.046354 
L 422.567601 346.43838 
L 422.816753 339.146796 
L 423.065905 341.357254 
L 423.315056 342.532902 
L 423.564208 337.649091 
L 423.81336 343.325214 
L 424.062511 342.263483 
L 424.311663 330.782678 
L 424.560814 333.2287 
L 424.809966 341.632012 
L 425.308269 330.000983 
L 425.557421 336.070958 
L 425.806573 332.629657 
L 426.055724 333.240972 
L 426.304876 332.751107 
L 426.803179 325.388941 
L 427.052331 327.489985 
L 427.301482 326.688724 
L 427.550634 326.278991 
L 427.799786 333.453316 
L 428.298089 322.822876 
L 428.547241 326.334428 
L 428.796392 321.235235 
L 429.045544 327.279079 
L 429.294695 324.663408 
L 429.543847 327.979842 
L 429.792999 325.295094 
L 430.04215 327.502475 
L 430.291302 323.282571 
L 430.540454 322.723005 
L 430.789605 323.763737 
L 431.038757 328.541319 
L 431.287909 326.776352 
L 431.53706 323.611838 
L 432.035363 321.462867 
L 432.284515 325.064724 
L 432.533667 325.321997 
L 433.03197 318.834667 
L 433.281122 324.612356 
L 433.530273 317.168006 
L 433.779425 320.041341 
L 434.028577 320.476901 
L 434.277728 321.182539 
L 434.52688 321.341634 
L 434.776031 320.8783 
L 435.025183 318.091216 
L 435.274335 321.980963 
L 435.523486 321.691675 
L 435.772638 325.683089 
L 436.02179 317.200165 
L 436.270941 322.05973 
L 436.520093 317.61195 
L 436.769245 319.110027 
L 437.018396 319.518237 
L 437.516699 318.279013 
L 437.765851 317.99141 
L 438.264154 318.936132 
L 438.513306 315.912266 
L 438.762458 314.832581 
L 439.011609 316.146017 
L 439.260761 319.847345 
L 439.509912 314.961783 
L 439.759064 318.113405 
L 440.008216 315.398655 
L 440.257367 316.807195 
L 440.506519 315.828891 
L 440.755671 317.585059 
L 441.004822 317.887408 
L 441.253974 314.8724 
L 441.503126 315.928039 
L 441.752277 314.083672 
L 442.001429 315.328528 
L 442.25058 314.364249 
L 442.499732 311.741098 
L 442.748884 311.310663 
L 442.998035 319.556558 
L 443.247187 314.336125 
L 443.496339 314.337932 
L 443.74549 312.620465 
L 444.243794 315.668675 
L 444.742097 310.968207 
L 444.991248 312.812987 
L 445.2404 312.002602 
L 445.489552 312.440431 
L 445.738703 312.01583 
L 445.987855 314.056292 
L 446.237007 311.833537 
L 446.486158 313.214834 
L 446.73531 311.684658 
L 446.984462 313.350233 
L 447.233613 313.826467 
L 447.482765 311.196561 
L 447.731916 315.859286 
L 448.23022 310.29409 
L 448.479371 309.918036 
L 448.728523 311.584437 
L 448.977675 311.489825 
L 449.226826 313.760069 
L 449.725129 311.420439 
L 449.974281 311.861905 
L 450.223433 309.918036 
L 450.472584 309.918036 
L 450.721736 314.833694 
L 451.220039 310.689022 
L 451.469191 309.918036 
L 451.718343 309.918036 
L 451.967494 312.85793 
L 452.216646 311.912787 
L 452.465797 309.918036 
L 452.714949 311.973821 
L 452.964101 310.610625 
L 453.213252 309.918036 
L 454.209859 309.918036 
L 454.459011 311.62225 
L 454.708162 309.918036 
L 455.206465 309.918036 
L 455.455617 311.229917 
L 455.704769 309.918036 
L 457.44883 309.918036 
L 457.697982 311.729035 
L 457.947133 309.918036 
L 462.182711 309.918036 
L 462.431863 311.63341 
L 462.681014 309.918036 
L 463.926773 309.918036 
L 464.175924 311.698528 
L 464.425076 309.918036 
L 465.919986 309.918036 
L 466.169137 184.399396 
L 466.418289 429.25493 
L 466.667441 402.777128 
L 466.916592 353.962163 
L 467.165744 370.799733 
L 467.414896 347.807827 
L 467.664047 354.126614 
L 468.16235 330.538555 
L 468.411502 320.838442 
L 468.660654 328.082114 
L 468.909805 317.307378 
L 469.158957 319.552219 
L 469.408109 316.758414 
L 469.65726 311.056185 
L 469.906412 313.170647 
L 470.155563 310.64295 
L 470.404715 311.513681 
L 470.903018 312.33191 
L 471.15217 312.05511 
L 471.401322 182.115867 
L 471.650473 421.978575 
L 471.899625 410.005679 
L 472.148777 407.517408 
L 472.397928 359.97254 
L 472.64708 357.799224 
L 472.896231 361.093356 
L 473.145383 343.863079 
L 473.892838 327.456657 
L 474.14199 326.636384 
L 474.640293 316.725345 
L 474.889445 323.193366 
L 475.138596 313.771256 
L 475.387748 317.394586 
L 475.886051 313.118107 
L 476.135203 309.918036 
L 476.384354 310.321442 
L 476.633506 309.918036 
L 476.882658 311.540759 
L 477.131809 309.918036 
L 478.377567 309.918036 
L 478.626719 188.608064 
L 478.875871 419.631732 
L 479.125022 374.084469 
L 479.374174 394.995186 
L 479.623326 361.242368 
L 479.872477 354.255997 
L 480.121629 329.106794 
L 480.37078 334.0611 
L 480.619932 310.905773 
L 480.869084 349.245782 
L 481.367387 319.353085 
L 481.616539 309.918036 
L 481.86569 309.918036 
L 482.114842 325.483545 
L 482.363994 314.854574 
L 482.613145 309.918036 
L 483.111448 320.030593 
L 483.3606 310.736843 
L 483.609752 313.979986 
L 483.858903 310.598076 
L 484.108055 313.065619 
L 484.357207 310.212911 
L 484.606358 311.696285 
L 484.85551 309.918036 
L 485.104662 309.918036 
L 485.353813 311.91588 
L 485.602965 311.494143 
L 485.852116 313.36963 
L 486.101268 309.918036 
L 486.35042 309.918036 
L 486.599571 311.956607 
L 486.848723 309.918036 
L 487.097875 309.918036 
L 487.596178 212.312324 
L 487.84533 269.720464 
L 488.094481 432.378386 
L 488.343633 382.845856 
L 488.592784 396.868463 
L 488.841936 404.029044 
L 489.091088 367.913044 
L 489.340239 379.461424 
L 489.589391 330.128252 
L 489.838543 358.869875 
L 490.087694 346.156573 
L 490.336846 345.680634 
L 490.585997 333.66287 
L 490.835149 330.075518 
L 491.084301 321.148812 
L 491.333452 316.790705 
L 491.582604 316.436738 
L 491.831756 315.530906 
L 492.080907 316.222205 
L 492.579211 309.918036 
L 493.077514 309.918036 
L 493.326665 311.307942 
L 493.575817 309.918036 
L 494.07412 309.918036 
L 494.323272 310.431903 
L 494.572424 309.918036 
L 494.821575 309.918036 
L 495.070727 290.264204 
L 495.319879 234.317572 
L 495.56903 397.062519 
L 495.818182 434.678963 
L 496.316485 358.833074 
L 496.565637 389.79293 
L 496.814788 361.130597 
L 497.06394 358.599007 
L 497.811395 334.57137 
L 498.060547 335.34212 
L 498.309698 316.63743 
L 498.55885 322.976705 
L 498.808001 322.873119 
L 499.306305 312.957723 
L 499.555456 312.335821 
L 499.804608 312.921404 
L 500.05376 312.728217 
L 500.302911 309.918036 
L 500.552063 311.834741 
L 500.801215 309.918036 
L 502.046973 309.918036 
L 502.296124 305.192834 
L 502.545276 153.464975 
L 502.794428 222.678541 
L 503.043579 410.139624 
L 503.292731 398.496672 
L 503.541882 400.111112 
L 503.791034 422.228956 
L 504.040186 382.477881 
L 504.289337 400.830352 
L 504.538489 334.993401 
L 504.787641 330.329978 
L 505.285944 392.058926 
L 505.535096 341.786959 
L 505.784247 371.577285 
L 506.033399 347.123456 
L 506.28255 354.565377 
L 506.531702 338.933787 
L 506.780854 345.089971 
L 507.030005 340.284435 
L 507.279157 344.291794 
L 507.528309 333.787331 
L 507.77746 328.002932 
L 508.026612 332.33707 
L 508.275764 334.167747 
L 508.524915 326.057244 
L 508.774067 328.057121 
L 509.023218 321.255124 
L 509.27237 325.759903 
L 509.770673 319.037213 
L 510.019825 323.497799 
L 510.268977 318.453615 
L 510.518128 317.873561 
L 510.76728 317.753107 
L 511.016432 322.525715 
L 511.265583 313.82964 
L 511.514735 313.642192 
L 511.763886 318.917879 
L 512.013038 316.984017 
L 512.26219 317.944923 
L 512.511341 313.585161 
L 512.760493 315.535472 
L 513.009645 309.918036 
L 513.258796 314.556465 
L 513.507948 314.44252 
L 514.006251 311.741098 
L 514.255403 311.915482 
L 514.504554 310.833238 
L 514.753706 313.247482 
L 515.002858 309.918036 
L 515.252009 312.05511 
L 515.501161 309.918036 
L 515.750313 309.918036 
L 515.999464 310.48775 
L 516.248616 309.918036 
L 516.497767 314.854581 
L 516.746919 309.918036 
L 516.996071 311.884811 
L 517.245222 309.918036 
L 517.743526 309.918036 
L 517.992677 311.206524 
L 518.241829 309.918036 
L 519.487587 309.918036 
L 519.736739 250.757957 
L 519.98589 341.970507 
L 520.235042 371.738854 
L 520.484194 367.028044 
L 520.733345 344.396429 
L 520.982497 351.272082 
L 521.231649 352.725195 
L 521.729952 324.059149 
L 521.979103 313.930129 
L 522.228255 314.833681 
L 522.97571 309.918036 
L 523.723165 309.918036 
L 523.972316 283.315328 
L 524.221468 303.494795 
L 524.47062 288.136638 
L 524.719771 358.317066 
L 524.968923 218.090947 
L 525.218075 409.251268 
L 525.467226 300.789708 
L 525.716378 401.783877 
L 525.96553 407.203817 
L 526.214681 415.154216 
L 526.463833 386.695672 
L 526.712984 379.372695 
L 526.962136 359.238248 
L 527.211288 383.881639 
L 527.460439 383.122668 
L 527.958743 365.931541 
L 528.207894 358.776803 
L 528.457046 356.648177 
L 528.706198 345.467532 
L 529.204501 339.472899 
L 529.702804 335.606015 
L 530.450259 326.049605 
L 530.699411 325.839982 
L 530.948562 323.529045 
L 531.197714 322.927062 
L 531.446866 321.213453 
L 531.696017 318.144563 
L 531.945169 317.248625 
L 532.19432 317.096499 
L 532.443472 314.216654 
L 532.692624 314.193854 
L 532.941775 312.77985 
L 533.440079 311.755838 
L 533.68923 310.62492 
L 533.938382 312.774192 
L 534.187533 312.582872 
L 534.436685 311.999352 
L 534.685837 309.918036 
L 534.934988 309.918036 
L 535.18414 311.307942 
L 535.433292 311.576775 
L 535.682443 309.918036 
L 535.931595 309.918036 
L 536.180747 311.307942 
L 536.429898 309.918036 
L 536.67905 311.94226 
L 536.928201 312.038583 
L 537.177353 309.918036 
L 538.17396 309.918036 
L 538.423111 297.32856 
L 538.921415 245.12046 
L 539.170566 434.945064 
L 539.419718 370.294066 
L 539.918021 406.175475 
L 540.167173 361.150088 
L 540.416324 390.225889 
L 540.665476 363.701744 
L 540.914628 363.102952 
L 541.163779 345.573179 
L 541.412931 347.151553 
L 541.911234 336.153568 
L 542.160386 333.655022 
L 542.409537 333.208375 
L 542.658689 326.138495 
L 542.907841 329.593357 
L 543.156992 323.170396 
L 543.406144 327.692384 
L 543.655296 322.832478 
L 543.904447 321.780881 
L 544.153599 319.545579 
L 544.40275 322.03762 
L 544.651902 317.525024 
L 544.901054 319.083276 
L 545.150205 318.511805 
L 545.399357 315.013054 
L 545.648509 313.325944 
L 545.89766 313.306497 
L 546.395964 314.170535 
L 546.894267 311.147391 
L 547.143418 312.340102 
L 547.39257 310.199427 
L 547.641722 309.918036 
L 547.890873 310.515507 
L 548.140025 310.782304 
L 548.389177 309.918036 
L 549.634935 309.918036 
L 549.884086 203.684919 
L 550.133238 424.991311 
L 550.38239 390.450005 
L 550.880693 372.424341 
L 551.129845 354.023187 
L 552.375603 310.379529 
L 552.624754 309.918036 
L 552.873906 199.229803 
L 553.123058 309.230673 
L 553.372209 304.860113 
L 553.621361 320.11483 
L 553.870513 447.64379 
L 554.119664 389.380526 
L 554.368816 400.617603 
L 554.617967 384.17409 
L 554.867119 389.17511 
L 555.116271 366.36044 
L 555.365422 390.199875 
L 555.614574 347.16262 
L 555.863726 363.490961 
L 556.112877 369.676069 
L 556.362029 358.195431 
L 556.611181 369.128337 
L 556.860332 374.858408 
L 557.109484 353.073658 
L 557.358635 355.957174 
L 557.607787 365.20101 
L 557.856939 368.135686 
L 558.10609 352.466402 
L 558.355242 355.127457 
L 558.853545 335.903427 
L 559.102697 334.060084 
L 559.351849 313.265068 
L 559.601 324.355122 
L 560.099303 313.650918 
L 560.348455 311.588766 
L 560.597607 311.441419 
L 560.846758 312.045183 
L 561.09591 311.159367 
L 561.345062 311.658269 
L 561.594213 309.918036 
L 562.341668 309.918036 
L 562.59082 203.851357 
L 562.839971 409.506817 
L 563.089123 404.846354 
L 563.338275 397.556718 
L 564.08573 354.408482 
L 564.584033 363.791509 
L 564.833184 350.952171 
L 565.082336 325.563044 
L 565.331488 330.16613 
L 565.580639 350.000592 
L 565.829791 316.86706 
L 566.078943 325.258822 
L 566.328094 328.66712 
L 566.826398 310.988493 
L 567.075549 318.578393 
L 567.324701 310.379037 
L 567.573852 314.341369 
L 567.823004 313.366722 
L 568.072156 309.918036 
L 569.068762 309.918036 
L 569.317914 218.476455 
L 569.567066 392.224023 
L 569.816217 383.164826 
L 570.065369 354.107357 
L 570.31452 351.04604 
L 570.563672 324.585854 
L 571.061975 311.429951 
L 571.311127 294.842504 
L 571.560279 309.853168 
L 571.80943 351.764002 
L 572.058582 324.017455 
L 572.307734 314.315658 
L 572.556885 313.478802 
L 572.806037 309.918036 
L 573.055188 321.915013 
L 573.30434 209.274965 
L 573.553492 308.37691 
L 573.802643 361.377048 
L 574.051795 352.379522 
L 574.550098 325.367442 
L 574.79925 318.037897 
L 575.048402 317.47498 
L 575.297553 314.11612 
L 575.546705 314.550616 
L 576.045008 309.918036 
L 576.543311 309.918036 
L 576.792463 310.546664 
L 577.041615 277.371979 
L 577.290766 341.046912 
L 577.539918 354.558688 
L 577.789069 329.865185 
L 578.038221 321.342467 
L 578.536524 315.154266 
L 578.785676 314.32755 
L 579.034828 309.918036 
L 579.283979 311.777968 
L 579.533131 309.918036 
L 579.782283 309.918036 
L 580.031434 311.081565 
L 580.280586 279.816682 
L 580.529737 374.591247 
L 580.778889 346.589284 
L 581.277192 316.863061 
L 581.526344 330.869466 
L 581.775496 315.632948 
L 582.024647 309.918036 
L 582.273799 313.057531 
L 582.522951 311.91588 
L 582.772102 309.918036 
L 583.021254 310.431903 
L 583.270405 311.332746 
L 583.519557 309.918036 
L 584.01786 309.918036 
L 584.267012 316.113132 
L 584.516164 311.956607 
L 584.765315 309.918036 
L 585.014467 350.548042 
L 585.263619 245.600515 
L 585.51277 334.538962 
L 585.761922 321.028795 
L 586.260225 309.918036 
L 586.509377 379.256462 
L 586.758528 176.444984 
L 587.00768 330.060225 
L 587.256832 352.686104 
L 587.505983 329.331917 
L 588.253438 309.918036 
L 589.000893 309.918036 
L 589.250045 383.847915 
L 589.499196 190.638211 
L 589.748348 224.574077 
L 589.9975 174.547909 
L 590.246651 340.713948 
L 590.495803 357.442213 
L 590.994106 334.755288 
L 591.492409 323.675541 
L 591.741561 324.627217 
L 591.990713 314.245135 
L 592.239864 318.546798 
L 592.489016 312.449393 
L 592.738168 311.892255 
L 592.987319 311.753378 
L 593.236471 316.729081 
L 593.485622 313.693244 
L 593.983926 309.918036 
L 594.233077 311.405898 
L 594.482229 311.307942 
L 594.731381 309.918036 
L 594.980532 309.918036 
L 595.229684 230.019372 
L 595.478836 377.277533 
L 595.727987 370.172678 
L 596.22629 329.04174 
L 596.475442 319.646048 
L 596.724594 319.264188 
L 596.973745 312.93503 
L 597.222897 310.332898 
L 597.472049 311.617539 
L 597.7212 309.918036 
L 597.970352 231.777693 
L 598.219503 375.702513 
L 598.468655 348.048464 
L 598.717807 339.763127 
L 598.966958 319.720601 
L 599.21611 318.35595 
L 599.465262 313.848166 
L 599.963565 309.918036 
L 600.212717 316.113132 
L 600.461868 311.956607 
L 600.71102 309.918036 
L 600.960171 233.246449 
L 601.209323 375.890704 
L 601.458475 355.085421 
L 601.707626 361.377777 
L 602.20593 314.794603 
L 602.455081 312.957723 
L 603.202536 309.918036 
L 603.451688 241.485628 
L 603.700839 354.557277 
L 603.949991 391.610397 
L 604.199143 344.999506 
L 604.448294 353.832384 
L 604.697446 312.990097 
L 604.946598 315.851518 
L 605.195749 309.918036 
L 605.444901 270.884092 
L 605.694053 338.639012 
L 606.192356 270.875892 
L 606.441507 338.655536 
L 606.690659 283.923541 
L 606.939811 325.647777 
L 607.188962 309.918036 
L 607.438114 280.994054 
L 607.687266 323.260853 
L 607.936417 320.437458 
L 608.185569 319.335384 
L 608.43472 313.338021 
L 608.683872 313.434129 
L 608.933024 312.273135 
L 609.182175 310.457569 
L 609.431327 309.918036 
L 609.680479 283.78147 
L 609.92963 325.120939 
L 610.178782 315.609952 
L 610.427934 310.669599 
L 610.677085 309.918036 
L 610.926237 309.918036 
L 611.175388 296.236271 
L 611.42454 313.251693 
L 611.673692 309.918036 
L 611.922843 296.245445 
L 612.171995 313.086434 
L 612.421147 309.918036 
L 612.670298 332.695549 
L 612.91945 261.758432 
L 613.168602 331.491325 
L 613.417753 314.138278 
L 613.666905 309.918036 
L 613.916056 337.161215 
L 614.165208 252.197738 
L 614.41436 334.696637 
L 614.663511 318.699786 
L 614.912663 311.171314 
L 615.161815 309.918036 
L 615.410966 309.918036 
L 615.660118 332.3724 
L 615.90927 269.862736 
L 616.158421 325.016285 
L 616.656724 311.081027 
L 617.155028 316.532546 
L 617.404179 316.113132 
L 617.653331 309.918036 
L 617.902483 261.972316 
L 618.151634 347.559112 
L 618.400786 262.137834 
L 618.649937 347.181457 
L 618.899089 312.280668 
L 619.148241 298.994039 
L 619.397392 310.537388 
L 619.646544 298.994039 
L 619.895696 310.537388 
L 620.144847 298.994039 
L 620.393999 310.537388 
L 620.643151 283.453926 
L 620.892302 325.985232 
L 621.141454 309.918036 
L 621.390605 283.369729 
L 621.888909 364.630286 
L 622.636364 364.630286 
L 622.636364 364.630286 
" style="fill:none;stroke:#1f77b4;stroke-linecap:square;stroke-width:0.3;"/>
   </g>
   <g id="patch_3">
    <path d="M 90 504 
L 90 69.12 
" style="fill:none;stroke:#000000;stroke-linecap:square;stroke-linejoin:miter;stroke-width:0.8;"/>
   </g>
   <g id="patch_4">
    <path d="M 648 504 
L 648 69.12 
" style="fill:none;stroke:#000000;stroke-linecap:square;stroke-linejoin:miter;stroke-width:0.8;"/>
   </g>
   <g id="patch_5">
    <path d="M 90 504 
L 648 504 
" style="fill:none;stroke:#000000;stroke-linecap:square;stroke-linejoin:miter;stroke-width:0.8;"/>
   </g>
   <g id="patch_6">
    <path d="M 90 69.12 
L 648 69.12 
" style="fill:none;stroke:#000000;stroke-linecap:square;stroke-linejoin:miter;stroke-width:0.8;"/>
   </g>
  </g>
 </g>
 <defs>
  <clipPath id="p8a14379fa7">
   <rect height="434.88" width="558" x="90" y="69.12"/>
  </clipPath>
 </defs>
</svg>
